<svg width="27" height="28" viewBox="0 0 27 28" fill="none" xmlns="http://www.w3.org/2000/svg">
<g clip-path="url(#clip0_3006_41481)">
<path d="M18.9045 8.90479C18.37 8.24617 17.3742 7.01917 16.9604 6.50491L15.0121 8.90479H15.6285C15.8656 8.90479 16.0595 9.10778 16.0595 9.35589V13.4429C16.0595 13.691 15.8656 13.894 15.6285 13.894C15.3914 13.894 15.1974 13.691 15.1974 13.4429V9.80699H14.4689C14.2232 9.80699 14.0163 9.66715 13.9129 9.43258C13.8094 9.20251 13.8439 8.94087 14.0034 8.7469L16.4906 5.67939C16.607 5.53053 16.7708 5.45384 16.9561 5.45384C17.1415 5.45384 17.301 5.53053 17.4217 5.67939L19.9088 8.7469C20.0683 8.94087 20.0985 9.198 19.9993 9.42807C19.8959 9.66264 19.689 9.80248 19.4433 9.80248H18.7148V16.1224C18.7148 16.3706 18.5208 16.5735 18.2838 16.5735C18.0467 16.5735 17.8527 16.3706 17.8527 16.1224V9.35138C17.8527 9.10327 18.0467 8.90027 18.2838 8.90027H18.9002L18.9045 8.90479ZM21.6201 14.9C21.6201 15.1481 21.4261 15.3511 21.189 15.3511C20.952 15.3511 20.758 15.1481 20.758 14.9V13.682C20.758 13.4339 20.952 13.2309 21.189 13.2309C21.4261 13.2309 21.6201 13.4339 21.6201 13.682V14.9ZM23.8529 13.682C23.8529 13.4339 24.0469 13.2309 24.284 13.2309C24.5211 13.2309 24.715 13.4339 24.715 13.682V14.9C24.715 15.1481 24.5211 15.3511 24.284 15.3511C24.0469 15.3511 23.8529 15.1481 23.8529 14.9V13.682ZM23.8529 11.1829C23.8529 10.9348 24.0469 10.7318 24.284 10.7318C24.5211 10.7318 24.715 10.9348 24.715 11.1829V12.4324C24.715 12.6805 24.5211 12.8835 24.284 12.8835C24.0469 12.8835 23.8529 12.6805 23.8529 12.4324V11.1829ZM25.1547 4.01031C24.5426 3.25697 23.2064 1.60593 22.7365 1.02852L20.3183 4.01031H21.189C21.4261 4.01031 21.6201 4.21331 21.6201 4.46141V12.4279C21.6201 12.676 21.4261 12.879 21.189 12.879C20.952 12.879 20.758 12.676 20.758 12.4279V4.91703H19.8399C19.5812 4.91703 19.3657 4.77268 19.2579 4.52457C19.1502 4.28097 19.1847 4.01031 19.3528 3.80731L22.2494 0.239085C22.3701 0.0811986 22.5382 0 22.7365 0C22.9348 0 23.0986 0.0811986 23.2236 0.234574L26.1203 3.80731C26.2841 4.01031 26.3186 4.28097 26.2151 4.52457C26.1073 4.76817 25.8875 4.91703 25.6332 4.91703H24.715V9.9333C24.715 10.1814 24.5211 10.3844 24.284 10.3844C24.0469 10.3844 23.8529 10.1814 23.8529 9.9333V4.46593C23.8529 4.21782 24.0469 4.01482 24.284 4.01482H25.1547V4.01031ZM8.86527 19.9162C7.73592 19.9162 6.82209 20.8726 6.82209 22.0545C6.82209 23.2363 7.73592 24.1972 8.86527 24.1972C9.99463 24.1972 10.9128 23.2363 10.9128 22.0545C10.9128 20.8726 9.99463 19.9162 8.86527 19.9162ZM8.86527 19.014C10.4731 19.014 11.7749 20.3764 11.7749 22.059C11.7749 23.7416 10.4731 25.1039 8.86527 25.1039C7.25745 25.1039 5.95567 23.7416 5.95567 22.059C5.95567 20.3764 7.25745 19.014 8.86527 19.014ZM9.50754 17.6381L9.27908 17.0156H8.45146L8.22301 17.6381C8.17128 17.778 8.05921 17.8817 7.92127 17.9133C7.50315 18.0171 7.10227 18.1885 6.73588 18.4276C6.61518 18.5043 6.46431 18.5178 6.335 18.4546L5.75308 18.184L5.16685 18.7975L5.42548 19.4065C5.48152 19.5418 5.47289 19.6997 5.39962 19.826C5.17547 20.2094 5.00736 20.629 4.90822 21.0665C4.87373 21.2109 4.77459 21.3282 4.64527 21.3823L4.05042 21.6214V22.4875L4.64527 22.7266C4.7789 22.7807 4.87804 22.898 4.90822 23.0424C5.00736 23.4799 5.17547 23.8995 5.39962 24.2829C5.47289 24.4092 5.48583 24.5671 5.42548 24.7024L5.16685 25.3114L5.75308 25.9249L6.335 25.6543C6.46431 25.5956 6.61518 25.6046 6.73588 25.6813C7.10227 25.9159 7.50315 26.0918 7.92127 26.1956C8.05921 26.2317 8.17128 26.3354 8.22301 26.4708L8.45146 27.0933H9.27908L9.50754 26.4708C9.55927 26.3309 9.67134 26.2272 9.80928 26.1956C10.2274 26.0918 10.6283 25.9204 10.9947 25.6813C11.1154 25.6046 11.2662 25.5911 11.3955 25.6543L11.9775 25.9249L12.5637 25.3114L12.3051 24.7024C12.249 24.5671 12.2577 24.4092 12.3309 24.2829C12.5551 23.8995 12.7232 23.4799 12.8223 23.0424C12.8568 22.898 12.956 22.7807 13.0896 22.7266L13.6844 22.4875V21.6214L13.0896 21.3823C12.956 21.3282 12.8568 21.2109 12.8223 21.0665C12.7232 20.629 12.5594 20.2094 12.3309 19.826C12.2577 19.6997 12.2447 19.5418 12.3051 19.4065L12.5637 18.7975L11.9775 18.184L11.3955 18.4546C11.2662 18.5133 11.1154 18.5043 10.9947 18.4276C10.6283 18.193 10.2274 18.0171 9.80928 17.9133C9.67134 17.8772 9.55927 17.7735 9.50754 17.6381ZM8.86527 12.1527C10.9904 12.1527 12.7232 10.3393 12.7232 8.11535C12.7232 5.89141 10.9904 4.07798 8.86527 4.07798C6.74019 4.07798 5.00736 5.89141 5.00736 8.11535C5.00736 10.3393 6.74019 12.1527 8.86527 12.1527ZM16.1845 20.3854L18.0424 21.7973C18.2838 21.9823 18.3872 22.3116 18.2924 22.6093L17.5811 24.8964L19.439 23.4845C19.6804 23.2995 20.0123 23.2995 20.2537 23.4845L22.1115 24.8964L21.4003 22.6093C21.3054 22.3116 21.4089 21.9823 21.6503 21.7973L23.5081 20.3854H21.2106C20.9089 20.3854 20.6459 20.1824 20.5511 19.8846L19.8399 17.5976L19.1286 19.8846C19.0338 20.1824 18.7708 20.3854 18.4691 20.3854H16.1716H16.1845ZM8.86527 13.0549C4.87804 13.0549 1.56756 16.0909 0.925297 20.0741H4.31336C4.38233 19.8982 4.45992 19.7268 4.55044 19.5599L4.26164 18.8787C4.18836 18.7073 4.22284 18.5088 4.35216 18.378L5.35651 17.3269C5.48152 17.1961 5.67549 17.1555 5.83498 17.2322L6.48587 17.5344C6.80916 17.3494 7.14969 17.2006 7.49884 17.0968L7.75316 16.4021C7.81782 16.2262 7.97731 16.1134 8.15404 16.1134H9.5722C9.74893 16.1134 9.91273 16.2307 9.97308 16.4021L10.2274 17.0968C10.5809 17.2051 10.9214 17.3494 11.2404 17.5344L11.8913 17.2322C12.0551 17.1555 12.2447 17.1916 12.374 17.3269L13.3784 18.378C13.5034 18.5088 13.5422 18.7118 13.4689 18.8787L13.1801 19.5599C13.2663 19.7268 13.3482 19.8982 13.4172 20.0741H14.9776L14.9991 19.9839C15.0897 19.6862 15.3569 19.4832 15.6587 19.4832H16.6846C15.8268 15.7931 12.6499 13.0549 8.86096 13.0549H8.86527ZM3.33057 20.9763H0.429587C0.308893 20.9763 0.188198 20.9222 0.106298 20.8275C0.0243986 20.7327 -0.014396 20.6064 -0.00146448 20.4756C0.399414 16.5871 3.07625 13.4113 6.61087 12.4505C5.1453 11.6114 4.14525 9.97841 4.14525 8.11084C4.14525 5.39069 6.26603 3.17126 8.86527 3.17126C11.4645 3.17126 13.5853 5.39069 13.5853 8.11084C13.5853 9.97841 12.5852 11.6114 11.1197 12.4505C14.3439 13.3301 16.8613 16.0548 17.5768 19.4787H18.357L19.189 16.7946C19.2795 16.4969 19.5467 16.2939 19.8485 16.2939C20.1502 16.2939 20.4132 16.4969 20.508 16.7946L21.3399 19.4787H24.034C24.3357 19.4787 24.5987 19.6817 24.6935 19.9794C24.7883 20.2771 24.6849 20.6064 24.4435 20.7914L22.2624 22.4514L23.0943 25.1355C23.1891 25.4332 23.0857 25.7625 22.8443 25.9475C22.6029 26.1324 22.271 26.1324 22.0296 25.9475L19.8485 24.2874L17.6674 25.9475C17.426 26.1324 17.0941 26.1324 16.8527 25.9475C16.6113 25.7625 16.5078 25.4332 16.6027 25.1355L17.4346 22.4514L15.4949 20.9763H14.4C14.4905 21.062 14.5422 21.1838 14.5422 21.3146V22.7988C14.5422 22.9837 14.4302 23.1551 14.2664 23.2183L13.6025 23.4845C13.4991 23.8544 13.3611 24.2107 13.1801 24.5445L13.4689 25.2257C13.5422 25.3971 13.5034 25.5956 13.3784 25.7264L12.374 26.7775C12.249 26.9083 12.0551 26.9489 11.8956 26.8722L11.2447 26.57C10.9214 26.755 10.5809 26.9038 10.2317 27.0076L9.97739 27.7023C9.91273 27.8782 9.75324 27.991 9.57651 27.991H8.15835C7.98162 27.991 7.81782 27.8737 7.75747 27.7023L7.50315 27.0076C7.14969 26.8993 6.80916 26.755 6.48587 26.5655L5.83498 26.8677C5.67118 26.9444 5.48152 26.9038 5.35651 26.773L4.35216 25.7219C4.22715 25.5911 4.18836 25.3881 4.26164 25.2212L4.55044 24.54C4.37371 24.2062 4.23146 23.8498 4.12801 23.4799L3.46419 23.2138C3.29608 23.1461 3.18832 22.9792 3.18832 22.7943V21.3101C3.18832 21.1793 3.24005 21.0575 3.33057 20.9718V20.9763Z" fill="#B5985A"/>
</g>
<defs>
<clipPath id="clip0_3006_41481">
<rect width="26.2769" height="28" fill="white"/>
</clipPath>
</defs>
</svg>
