<svg width="26" height="26" viewBox="0 0 26 26" fill="none" xmlns="http://www.w3.org/2000/svg">
<path d="M20.3632 18.2703H18.1435C18.0492 18.2703 17.9588 18.3078 17.8922 18.3745C17.8255 18.4411 17.788 18.5315 17.788 18.6258V19.2895L16.2509 19.6958L12.6794 18.1667C12.6683 18.1622 12.6571 18.1581 12.6454 18.1546C12.4223 18.0844 12.1832 18.0836 11.9596 18.152C11.736 18.2205 11.5383 18.3552 11.3927 18.5382C11.2472 18.7212 11.1604 18.9441 11.144 19.1774C11.1276 19.4106 11.1822 19.6434 11.3007 19.8451H11.0976C10.7647 19.8456 10.433 19.8051 10.1099 19.7247L7.49367 19.0717C7.09595 18.9728 6.67577 19.0234 6.31287 19.2138C5.94997 19.4042 5.66961 19.7212 5.52498 20.1047C5.38035 20.4881 5.38153 20.9113 5.52829 21.294C5.67505 21.6766 5.95717 21.9921 6.32113 22.1805L9.00289 23.5643C9.38915 23.7637 9.8174 23.8682 10.2521 23.869H17.788V24.2635C17.788 24.3578 17.8255 24.4482 17.8922 24.5149C17.9588 24.5816 18.0492 24.619 18.1435 24.619H20.3611C20.4554 24.619 20.5458 24.5816 20.6125 24.5149C20.6791 24.4482 20.7166 24.3578 20.7166 24.2635V18.6268C20.7169 18.5327 20.6798 18.4424 20.6136 18.3755C20.5473 18.3087 20.4573 18.2709 20.3632 18.2703ZM17.788 23.1565H10.2521C9.93095 23.1562 9.61449 23.0795 9.3289 22.9326L6.64714 21.5478C6.43784 21.4394 6.2756 21.258 6.19121 21.038C6.10682 20.818 6.10615 20.5746 6.18934 20.3541C6.27253 20.1336 6.43378 19.9513 6.64249 19.8418C6.85119 19.7324 7.09283 19.7033 7.32152 19.7603L9.93777 20.4138C10.3166 20.5083 10.7056 20.556 11.0961 20.556H12.3148L13.0491 20.9115C13.0967 20.9343 13.1487 20.9464 13.2015 20.947C13.282 20.9472 13.3603 20.9201 13.4234 20.87C13.4865 20.82 13.5307 20.75 13.5488 20.6715C13.5669 20.593 13.5578 20.5107 13.5231 20.4381C13.4883 20.3654 13.4299 20.3067 13.3574 20.2716L12.0995 19.6622C11.9994 19.6132 11.9212 19.5286 11.8802 19.425C11.8391 19.3214 11.8382 19.2062 11.8775 19.1019C11.9169 18.9976 11.9937 18.9118 12.093 18.8611C12.1922 18.8104 12.3068 18.7986 12.4144 18.8279L16.0818 20.3986C16.1546 20.4297 16.2358 20.4356 16.3123 20.4153L17.785 20.0243L17.788 23.1565ZM20.0057 23.9065H18.499V18.9808H20.0057V23.9065Z" fill="#B5985A"/>
<path d="M6.15372 9.39089C6.15104 10.3421 6.33582 11.2846 6.69749 12.1644C7.05917 13.0442 7.59064 13.8442 8.26156 14.5185C8.93248 15.1929 9.72969 15.7285 10.6076 16.0946C11.4856 16.4608 12.4271 16.6504 13.3784 16.6526H13.3982C14.3656 16.6559 15.3238 16.4637 16.2152 16.0876C17.1065 15.7115 17.9128 15.1592 18.5855 14.4639C19.4423 13.5856 20.0621 12.504 20.3867 11.3206L20.4324 11.3013L20.4065 11.2424C20.686 10.1726 20.7169 9.05304 20.4968 7.96948C20.2768 6.88591 19.8117 5.86709 19.137 4.99106C18.4624 4.11504 17.5962 3.40505 16.6048 2.9155C15.6134 2.42595 14.5231 2.16983 13.4175 2.16675C13.2956 2.16675 13.1757 2.16675 13.062 2.17437C12.3424 2.20668 11.6317 2.3467 10.9536 2.58976C9.92909 2.95924 9.00041 3.55355 8.23575 4.32901C6.90472 5.67794 6.15699 7.49584 6.15372 9.39089ZM7.71016 12.6272C6.91723 11.222 6.67076 9.57362 7.01801 7.99796C7.42426 8.80538 7.79903 9.71132 7.75231 10.0602L7.7386 10.1617L7.78938 10.2511C7.81477 10.2948 8.40891 11.3094 9.74496 11.7146C9.79575 11.9025 9.71653 12.5002 9.56875 13.035L9.53067 13.1731L9.61293 13.2904C9.63375 13.3203 10.1131 14.0013 10.6905 14.3339C10.756 14.4589 10.8662 14.7991 10.4737 15.251C9.31284 14.6696 8.35096 13.7563 7.71016 12.6272ZM18.7835 5.71179C19.5367 6.80436 19.937 8.10146 19.9307 9.42847C19.93 9.67708 19.9153 9.92546 19.8865 10.1724C19.7123 9.88042 19.63 9.85147 19.562 9.82862C19.4411 9.78749 18.8338 9.50312 18.3239 9.24261C18.2407 9.19995 18.1904 9.17456 18.3468 8.78151C18.3842 8.69618 18.4138 8.60762 18.4352 8.51694C18.4859 8.26304 18.3077 7.97562 18.102 7.64452C18.0172 7.50792 17.8756 7.2794 17.8629 7.20374C17.7836 6.71675 17.1093 6.48671 16.3953 6.24397C15.3797 5.89714 14.6179 5.54522 14.1436 5.19737C14.1154 5.17856 14.0907 5.15502 14.0705 5.1278C14.0929 5.0369 14.3315 4.8419 14.4478 4.74745C14.689 4.55042 14.8972 4.3803 14.8972 4.13147C14.8998 4.00757 15.0785 3.56069 15.27 3.15241C16.6985 3.58043 17.938 4.48336 18.7835 5.71179ZM8.74153 4.82769C9.43105 4.12837 10.2684 3.59238 11.1922 3.25905C11.804 3.03969 12.4452 2.91353 13.0945 2.88479C13.192 2.87972 13.2931 2.87769 13.3951 2.87769H13.4154C13.8356 2.87898 14.2546 2.92081 14.6667 3.00261C14.5082 3.34741 14.3168 3.80749 14.2909 4.07409C14.2192 4.14669 14.1429 4.21454 14.0624 4.27722C13.7897 4.49964 13.453 4.7769 13.4601 5.14964C13.4657 5.35632 13.5749 5.53862 13.7846 5.69147C14.3178 6.08097 15.108 6.45319 16.1993 6.82288C16.5177 6.93104 17.1788 7.15651 17.2631 7.3114C17.2972 7.50538 17.4302 7.72019 17.5846 7.968C17.6694 8.10511 17.8085 8.32956 17.8319 8.42147C17.8217 8.45601 17.7994 8.51187 17.7811 8.55808C17.6729 8.83026 17.4195 9.46655 18.0472 9.78749C18.4656 10.0013 19.0582 10.2846 19.3005 10.3826C19.3792 10.4923 19.5397 10.8107 19.6971 11.1525C19.4981 11.874 19.176 12.5557 18.7449 13.1675C18.5438 13.4527 18.3205 13.7217 18.0772 13.9719C17.4705 14.599 16.7433 15.0971 15.9394 15.4363C15.1354 15.7755 14.2712 15.9488 13.3987 15.9457H13.3804C12.5837 15.9433 11.7942 15.7947 11.0511 15.5075C11.6873 14.6386 11.1526 13.9277 11.1481 13.9191L11.1064 13.8657L11.0465 13.8348C10.691 13.6525 10.3472 13.2472 10.1954 13.0522C10.2335 12.8958 10.2924 12.6353 10.331 12.3662C10.3721 12.0726 10.4833 11.2942 9.97551 11.1474C9.32766 10.9617 8.76084 10.564 8.36575 10.018C8.3693 9.24362 7.6086 7.77808 7.26582 7.15702C7.27497 7.13163 7.28411 7.10624 7.29375 7.08034C7.61469 6.23707 8.10775 5.46989 8.74153 4.82769Z" fill="#B5985A"/>
<path d="M11.4408 10.7449L12.9135 11.9042C13.051 12.0125 13.2209 12.0714 13.3959 12.0714C13.5709 12.0714 13.7409 12.0125 13.8783 11.9042L15.351 10.7433C15.5572 10.582 15.7239 10.3758 15.8383 10.1403C15.9527 9.90476 16.0118 9.64624 16.0111 9.38442V9.1361C16.0104 8.83326 15.9252 8.53663 15.7652 8.27951C15.6052 8.0224 15.3767 7.81497 15.1053 7.68053C14.8339 7.54609 14.5305 7.48995 14.229 7.51842C13.9275 7.54688 13.6399 7.65883 13.3985 7.84169C13.157 7.65802 12.869 7.54544 12.5669 7.51664C12.2649 7.48783 11.9608 7.54395 11.689 7.67866C11.4171 7.81338 11.1883 8.02134 11.0282 8.27911C10.8682 8.53688 10.7834 8.83422 10.7832 9.13763V9.38595C10.7822 9.64757 10.8408 9.90598 10.9548 10.1415C11.0688 10.377 11.235 10.5833 11.4408 10.7449ZM11.4916 9.13763C11.4915 8.94814 11.5501 8.76328 11.6593 8.60842C11.7685 8.45357 11.923 8.33632 12.1015 8.27277C12.28 8.20922 12.4738 8.20249 12.6563 8.25351C12.8388 8.30453 13.001 8.41079 13.1207 8.5577C13.154 8.59849 13.196 8.63136 13.2436 8.65394C13.2912 8.67651 13.3432 8.68822 13.3959 8.68822C13.4486 8.68822 13.5006 8.67651 13.5482 8.65394C13.5958 8.63136 13.6378 8.59849 13.6711 8.5577C13.7908 8.41079 13.953 8.30453 14.1355 8.25351C14.318 8.20249 14.5118 8.20922 14.6903 8.27277C14.8688 8.33632 15.0233 8.45357 15.1325 8.60842C15.2417 8.76328 15.3003 8.94814 15.3002 9.13763V9.38595C15.3005 9.54016 15.2657 9.69242 15.1984 9.83118C15.1311 9.96993 15.033 10.0915 14.9117 10.1868L13.4416 11.3456C13.4293 11.3552 13.4141 11.3605 13.3985 11.3605C13.3828 11.3605 13.3676 11.3552 13.3553 11.3456L11.8826 10.1847C11.7613 10.0895 11.6633 9.9679 11.596 9.82915C11.5287 9.69039 11.4939 9.53813 11.4942 9.38391L11.4916 9.13763Z" fill="#B5985A"/>
</svg>
