<svg width="18" height="17" viewBox="0 0 18 17" fill="none" xmlns="http://www.w3.org/2000/svg">
<path d="M2.27051 5.79888C2.34422 4.31158 2.56473 3.38428 3.22438 2.72462C3.88403 2.06497 4.81134 1.84446 6.29864 1.77075M15.7288 5.79888C15.6551 4.31158 15.4346 3.38428 14.775 2.72462C14.1153 2.06497 13.188 1.84446 11.7007 1.77075M11.7007 15.2291C13.188 15.1553 14.1153 14.9348 14.775 14.2752C15.4346 13.6156 15.6551 12.6882 15.7288 11.2009M6.29863 15.2291C4.81133 15.1553 3.88403 14.9348 3.22438 14.2752C2.56473 13.6156 2.34422 12.6882 2.27051 11.2009" stroke="#1E1E1E" stroke-width="1.0625" stroke-linecap="round" stroke-linejoin="round"/>
<path d="M7.22977 7.47594C7.22977 6.87973 7.13614 5.9593 7.49612 5.42261C8.29121 4.2372 9.97811 4.39467 10.5731 5.55173C10.8652 6.11961 10.7551 6.91356 10.7686 7.47594M7.22977 7.47594C6.31083 7.47594 6.12366 8.00202 5.98312 8.41462C5.85339 8.87879 5.72132 9.98712 5.92362 11.2016C6.07497 11.9752 6.6665 12.3155 7.17521 12.3586C7.66172 12.3998 9.71581 12.3841 10.3105 12.3841C11.2319 12.3841 11.8073 12.1815 12.0776 11.2531C12.2074 10.531 12.2429 9.23983 12.0266 8.41462C11.7402 7.58934 11.1627 7.47594 10.7686 7.47594M7.22977 7.47594C8.20274 7.43733 10.2124 7.44498 10.7686 7.47594" stroke="#EE1A26" stroke-width="1.0625" stroke-linecap="round"/>
</svg>
