<svg width="24" height="25" viewBox="0 0 24 25" fill="none" xmlns="http://www.w3.org/2000/svg">
<g clip-path="url(#clip0_5146_18573)">
<path d="M12.0016 0.7146L21.9166 5.2146H23.2516C23.4505 5.2146 23.6413 5.29362 23.7819 5.43427C23.9226 5.57492 24.0016 5.76569 24.0016 5.9646V8.9646C24.0016 9.16351 23.9226 9.35428 23.7819 9.49493C23.6413 9.63558 23.4505 9.7146 23.2516 9.7146H22.5016V20.2146C22.6691 20.2147 22.8317 20.2709 22.9636 20.3742C23.0954 20.4775 23.1889 20.622 23.2291 20.7846L23.9791 23.7846C24.007 23.8951 24.0093 24.0105 23.9857 24.122C23.9622 24.2335 23.9134 24.3381 23.8432 24.4279C23.773 24.5176 23.6832 24.5901 23.5807 24.6398C23.4781 24.6895 23.3656 24.7151 23.2516 24.7146H0.751607C0.637653 24.7151 0.525096 24.6895 0.42255 24.6398C0.320004 24.5901 0.230188 24.5176 0.159976 24.4279C0.0897646 24.3381 0.0410183 24.2335 0.0174684 24.122C-0.00608152 24.0105 -0.00381069 23.8951 0.0241071 23.7846L0.774107 20.7846C0.814306 20.622 0.907779 20.4775 1.03963 20.3742C1.17148 20.2709 1.33411 20.2147 1.50161 20.2146V9.7146H0.751607C0.552695 9.7146 0.361929 9.63558 0.221277 9.49493C0.0806247 9.35428 0.00160705 9.16351 0.00160705 8.9646V5.9646C0.00160705 5.76569 0.0806247 5.57492 0.221277 5.43427C0.361929 5.29362 0.552695 5.2146 0.751607 5.2146H2.08661L12.0016 0.7146ZM5.66711 5.2146H18.3376L12.0016 2.2146L5.66711 5.2146ZM3.00161 9.7146V20.2146H4.50161V9.7146H3.00161ZM6.00161 9.7146V20.2146H9.75161V9.7146H6.00161ZM11.2516 9.7146V20.2146H12.7516V9.7146H11.2516ZM14.2516 9.7146V20.2146H18.0016V9.7146H14.2516ZM19.5016 9.7146V20.2146H21.0016V9.7146H19.5016ZM22.5016 8.2146V6.7146H1.50161V8.2146H22.5016ZM21.9166 21.7146H2.08661L1.71161 23.2146H22.2916L21.9166 21.7146Z" fill="#B5985A"/>
</g>
<defs>
<clipPath id="clip0_5146_18573">
<rect width="24" height="24" fill="white" transform="translate(0 0.714844)"/>
</clipPath>
</defs>
</svg>
