<svg width="24" height="24" viewBox="0 0 24 24" fill="none" xmlns="http://www.w3.org/2000/svg">
<g clip-path="url(#clip0_5317_875)">
<path fill-rule="evenodd" clip-rule="evenodd" d="M12 0C18.6274 0 24 5.37258 24 12C24 18.6274 18.6274 24 12 24C5.37258 24 0 18.6274 0 12C0 5.37258 5.37258 0 12 0Z" fill="black"/>
<path d="M14.9363 7.38525H16.502L13.0814 11.295L17.1056 16.615H13.9546L11.4867 13.3883L8.66289 16.615H7.09619L10.7549 12.4332L6.89453 7.38525H10.1253L12.3561 10.3345L14.9363 7.38525ZM14.3867 15.6778H15.2544L9.65397 8.27325H8.72303L14.3867 15.6778Z" fill="white"/>
</g>
<defs>
<clipPath id="clip0_5317_875">
<rect width="24" height="24" fill="white"/>
</clipPath>
</defs>
</svg>
