<svg width="17" height="17" viewBox="0 0 17 17" fill="none" xmlns="http://www.w3.org/2000/svg">
<path d="M1.77051 5.79888C1.84422 4.31158 2.06473 3.38428 2.72438 2.72462C3.38403 2.06497 4.31134 1.84446 5.79864 1.77075M15.2288 5.79888C15.1551 4.31158 14.9346 3.38428 14.275 2.72462C13.6153 2.06497 12.688 1.84446 11.2007 1.77075M11.2007 15.2291C12.688 15.1553 13.6153 14.9348 14.275 14.2752C14.9346 13.6156 15.1551 12.6882 15.2288 11.2009M5.79863 15.2291C4.31133 15.1553 3.38403 14.9348 2.72438 14.2752C2.06473 13.6156 1.84422 12.6882 1.77051 11.2009" stroke="#1E1E1E" stroke-width="1.0625" stroke-linecap="round" stroke-linejoin="round"/>
<path d="M7.26074 7.28009V5.76505C7.26074 4.92831 7.97429 4.25 8.85449 4.25C9.38098 4.25 9.84781 4.49267 10.1381 4.86675M12.042 9.66088C12.042 8.64554 12.042 8.13787 11.7597 7.7882C11.687 7.69816 11.6022 7.61756 11.5075 7.54847C11.1397 7.28009 10.6056 7.28009 9.53753 7.28009H8.17146C7.10337 7.28009 6.56933 7.28009 6.20149 7.54847C6.10678 7.61756 6.02199 7.69816 5.94931 7.7882C5.66699 8.13787 5.66699 8.64554 5.66699 9.66088C5.66699 10.6762 5.66699 11.1839 5.94931 11.5336C6.02199 11.6236 6.10678 11.7042 6.20149 11.7733C6.56933 12.0417 7.10337 12.0417 8.17146 12.0417H9.53753C10.6056 12.0417 11.1397 12.0417 11.5075 11.7733C11.6022 11.7042 11.687 11.6236 11.7597 11.5336C12.042 11.1839 12.042 10.6762 12.042 9.66088Z" stroke="#008000" stroke-width="1.0625" stroke-linecap="round" stroke-linejoin="round"/>
</svg>
