<svg width="46" height="46" viewBox="0 0 46 46" fill="none" xmlns="http://www.w3.org/2000/svg">
<g clip-path="url(#clip0_3718_4820)">
<path fill-rule="evenodd" clip-rule="evenodd" d="M27.0378 40.8169V8.27272C27.0378 6.81412 27.0346 5.87128 26.9406 5.17658C26.8523 4.52507 26.7099 4.32087 26.5947 4.20654C26.4795 4.0922 26.274 3.95079 25.6178 3.86319C24.9181 3.76979 23.9685 3.7666 22.4995 3.7666C21.0305 3.7666 20.0808 3.76979 19.3811 3.86319C18.725 3.95079 18.5194 4.0922 18.4042 4.20654C18.289 4.32087 18.1466 4.52507 18.0584 5.17658C17.9643 5.87128 17.9611 6.81412 17.9611 8.27272V40.8169H27.0378Z" fill="black"/>
<path d="M15.4856 17.3464C15.4856 16.519 14.8083 15.8482 13.9729 15.8482H7.9217C7.08622 15.8482 6.40891 16.519 6.40891 17.3464V40.8169H15.4856V17.3464Z" fill="black"/>
<path d="M39.4152 27.0439C39.4152 26.1987 38.7379 25.5135 37.9024 25.5135H31.8513C31.0158 25.5135 30.3385 26.1987 30.3385 27.0439V40.8169H39.4152V27.0439Z" fill="black"/>
<path d="M2.15839 40.8169C1.31585 40.8169 0.632812 41.3579 0.632812 42.0251C0.632812 42.6923 1.31585 43.2333 2.15839 43.2333H42.8406C43.6831 43.2333 44.3661 42.6923 44.3661 42.0251C44.3661 41.3579 43.6831 40.8169 42.8406 40.8169H2.15839Z" fill="black"/>
</g>
<defs>
<clipPath id="clip0_3718_4820">
<rect width="44.8" height="44.8" fill="white" transform="translate(0.632812 0.566406)"/>
</clipPath>
</defs>
</svg>
