<svg width="24" height="28" viewBox="0 0 24 28" fill="none" xmlns="http://www.w3.org/2000/svg">
<g clip-path="url(#clip0_3006_40540)">
<path d="M7.10304 1.63899C7.14857 2.93655 7.23962 3.30078 7.51279 3.30078C7.78597 3.30078 7.87702 2.93655 7.92255 1.63899C7.99084 0.11379 7.96808 -3.14713e-05 7.51279 -3.14713e-05C7.05751 -3.14713e-05 7.03475 0.11379 7.10304 1.63899Z" fill="#B5985A"/>
<path d="M9.78906 2.64071C9.78906 5.03096 9.83459 5.2586 10.1988 5.19031C10.5403 5.12202 10.5858 4.78055 10.6541 2.54966C10.7224 0.113885 10.6996 6.4373e-05 10.2443 6.4373e-05C9.81183 6.4373e-05 9.78906 0.13665 9.78906 2.64071Z" fill="#B5985A"/>
<path d="M13.9992 1.5708C12.9521 2.18544 12.5195 3.00495 12.5195 4.32528C12.5195 5.30414 12.6334 5.60007 13.2708 6.283C15.2968 8.51389 18.8935 6.9204 18.5976 3.91552C18.3699 1.75292 15.8203 0.455358 13.9992 1.5708ZM16.913 2.68625C18.4155 4.02934 17.4366 6.37406 15.3651 6.37406C14.0675 6.37406 13.0886 4.6895 13.6122 3.34641C14.0903 2.16267 15.9342 1.77568 16.913 2.68625Z" fill="#B5985A"/>
<path d="M5.9187 6.41952C5.48618 6.71545 5.00813 7.21626 4.84878 7.5122C4.43902 8.30895 4.48455 10.039 4.91707 10.6537L5.25854 11.1545H3.59675C2.34472 11.1545 1.77561 11.2683 1.2748 11.587C0.0455284 12.4065 0.0227642 12.5659 0 19.5317C0 25.2228 0.0455284 26.065 0.386992 26.6569C1.18374 27.9772 1.32033 28 11.6553 28C20.6927 28 21.0797 27.9772 21.8081 27.5447C23.1285 26.748 23.2195 26.1789 23.2195 19.5772C23.2195 13.2715 23.1285 12.6569 22.0813 11.7236C21.6032 11.2911 21.1935 11.2683 15.8211 11.2L10.039 11.1317L10.3805 10.3577C10.7902 9.37886 10.7902 8.55935 10.3805 7.78537C9.46992 6.00976 7.42114 5.39512 5.9187 6.41952ZM8.85528 7.48943C10.4715 8.62765 9.44715 11.1545 7.37561 11.1545C6.62439 11.1545 5.46341 9.9935 5.46341 9.24228C5.46341 8.33171 5.96423 7.46667 6.71545 7.14797C7.48943 6.80651 8.03577 6.89756 8.85528 7.48943ZM19.1675 12.7024C19.6 13.135 19.6911 13.4992 19.7593 15.0244L19.8504 16.8455H16.6406C13.1805 16.8455 12.452 17.0276 11.7463 18.0293C11.3366 18.5984 11.2683 20.3057 11.6098 20.9431C11.7236 21.1707 12.1789 21.5805 12.6114 21.8309C13.2943 22.2634 13.7268 22.3089 16.6179 22.3089H19.8504L19.7821 24.1073C19.6455 27.0667 20.3512 26.8618 10.335 26.8618H1.8439L1.38862 26.2699C0.933333 25.678 0.910569 25.3821 0.910569 19.6C0.910569 13.0894 0.956097 12.7707 2.13984 12.2927C2.39024 12.1789 6.2374 12.1106 10.6309 12.1333C18.6439 12.1789 18.6667 12.1789 19.1675 12.7024ZM21.6943 12.7935C21.9902 13.1577 22.0813 13.6585 22.0813 15.0472V16.8455H21.4211H20.7382L20.6699 14.8423C20.6244 13.7496 20.4878 12.6797 20.3967 12.4293C20.2146 12.065 20.2602 12.0423 20.7382 12.1789C21.0341 12.2699 21.4667 12.5431 21.6943 12.7935ZM22.0813 19.4634V21.1707H17.6423C13.3854 21.1707 13.2032 21.148 12.748 20.6699C12.4976 20.3967 12.2927 19.9415 12.2927 19.6683C12.2927 18.0065 13.0211 17.7789 18.052 17.7561H22.0813V19.4634ZM22.0813 24.1301C22.0813 25.6553 22.013 26.0195 21.626 26.4065C21.3756 26.6569 20.9659 26.8618 20.7154 26.8618C20.3285 26.8618 20.3057 26.7935 20.4878 26.2699C20.6244 25.9512 20.7154 24.9268 20.7154 23.9935V22.3089H21.3984H22.0813V24.1301Z" fill="#B5985A"/>
<path d="M13.3626 19.2812C13.2943 19.395 13.3171 19.6227 13.4309 19.782C13.6586 20.169 14.4098 19.9186 14.296 19.5088C14.1594 19.1674 13.522 19.008 13.3626 19.2812Z" fill="#B5985A"/>
</g>
<defs>
<clipPath id="clip0_3006_40540">
<rect width="23.2195" height="28" fill="white"/>
</clipPath>
</defs>
</svg>
