<svg width="53" height="53" viewBox="0 0 53 53" fill="none" xmlns="http://www.w3.org/2000/svg">
<g clip-path="url(#clip0_3718_8499)">
<path d="M41.9147 31.6126C41.7659 30.8888 41.3195 30.4545 40.5754 30.3097C40.2777 30.3097 33.1345 29.5859 28.9676 33.6392C28.8188 33.784 28.6699 33.9288 28.5211 34.0735V28.7173C34.325 27.9935 38.9384 23.0716 38.9384 17.2811C38.9384 10.9116 33.5809 5.7002 27.0329 5.7002C20.4849 5.7002 15.1275 10.9116 15.1275 17.2811C15.1275 23.2164 19.7409 27.9935 25.5448 28.7173V34.0735C25.3959 33.9288 25.2471 33.784 25.0983 33.6392C20.9314 29.5859 13.7881 30.3097 13.4905 30.3097C12.7464 30.4545 12.3 30.8888 12.1511 31.6126C12.1511 31.9021 11.407 38.8507 15.574 42.904C18.5503 45.7992 23.3125 46.2335 25.6936 46.2335C26.2889 46.2335 26.8841 46.2335 27.0329 46.2335C27.3306 46.2335 27.777 46.2335 28.3723 46.2335C30.7534 46.2335 35.3668 45.7992 38.4919 42.904C42.6588 38.8507 41.9147 31.9021 41.9147 31.6126ZM24.0566 21.624C24.0566 20.7554 24.6519 20.1764 25.5448 20.1764H27.777C28.2235 20.1764 28.5211 19.8869 28.5211 19.4526C28.5211 19.0183 28.2235 18.7288 27.777 18.7288H26.2889C24.2054 18.7288 22.5684 17.1364 22.5684 15.1097C22.5684 13.3726 23.9078 11.925 25.5448 11.6354V11.4907C25.5448 10.6221 26.14 10.0431 27.0329 10.0431C27.9258 10.0431 28.5211 10.6221 28.5211 11.4907C29.414 11.4907 30.0093 12.0697 30.0093 12.9383C30.0093 13.8069 29.414 14.3859 28.5211 14.3859H26.2889C25.8424 14.3859 25.5448 14.6754 25.5448 15.1097C25.5448 15.544 25.8424 15.8335 26.2889 15.8335H27.777C29.8605 15.8335 31.4975 17.4259 31.4975 19.4526C31.4975 21.1897 30.1581 22.6373 28.5211 22.9269V23.0716C28.5211 23.9402 27.9258 24.5192 27.0329 24.5192C26.14 24.5192 25.5448 23.9402 25.5448 23.0716C24.6519 23.0716 24.0566 22.4926 24.0566 21.624Z" fill="black"/>
</g>
<defs>
<clipPath id="clip0_3718_8499">
<rect width="44.8" height="44.8" fill="white" transform="translate(4.63281 3.56641)"/>
</clipPath>
</defs>
</svg>
