<svg width="25" height="28" viewBox="0 0 25 28" fill="none" xmlns="http://www.w3.org/2000/svg">
<g clip-path="url(#clip0_2982_17164)">
<path d="M24.0949 21.7394L23.3289 22.0316C23.1917 22.0848 23.0854 22.2043 23.05 22.3504C22.926 22.864 22.7223 23.3555 22.4478 23.8071C22.3681 23.9355 22.3593 24.0904 22.4213 24.2277L22.7533 24.976L21.9741 25.7552L21.2258 25.4231C21.0886 25.3612 20.9336 25.3744 20.8052 25.4497C20.358 25.7287 19.8621 25.9323 19.3485 26.0519C19.2024 26.0873 19.0829 26.1891 19.0297 26.3308L18.7331 27.0968H17.635L17.3384 26.3308C17.2853 26.1935 17.1657 26.0873 17.0196 26.0519C16.5016 25.9279 16.0101 25.7242 15.5585 25.4497C15.4301 25.37 15.2751 25.3612 15.1379 25.4231L14.3896 25.7552L13.6104 24.976L13.9424 24.2277C14.0044 24.0904 13.9911 23.9355 13.9159 23.8071C13.6369 23.3555 13.4333 22.864 13.3093 22.3504C13.2739 22.2043 13.172 22.0892 13.0304 22.0361L12.2644 21.7438V20.6414L13.0304 20.3491C13.1676 20.296 13.2739 20.1765 13.3093 20.0348C13.4333 19.5168 13.6369 19.0253 13.9159 18.5737C13.9956 18.4453 14.0044 18.2903 13.9424 18.1531L13.6104 17.4048L14.3896 16.6256L15.1379 16.9576C15.2751 17.0196 15.4301 17.0063 15.5585 16.9311C16.0101 16.6521 16.5016 16.4485 17.0152 16.3289C17.1613 16.2935 17.2808 16.1916 17.334 16.0544L17.6306 15.2884H18.7331L19.0297 16.0544C19.0829 16.1916 19.2024 16.2979 19.3485 16.3333C19.8621 16.4573 20.3536 16.661 20.8052 16.9355C20.9336 17.0152 21.0886 17.024 21.2258 16.962L21.9741 16.63L22.7533 17.4092L22.4213 18.1575C22.3593 18.2947 22.3725 18.4497 22.4478 18.5781C22.7268 19.0297 22.9304 19.5212 23.05 20.0348C23.0854 20.1809 23.1872 20.3004 23.3289 20.3536L24.0949 20.6458V21.7483V21.7394ZM12.8134 24.5686H0.903226V4.03352H3.10373V21.8899C3.10373 22.1379 3.3074 22.3416 3.55534 22.3416H11.4807C11.5294 22.3991 11.5914 22.4434 11.6667 22.4744L12.5035 22.7976C12.6319 23.2448 12.809 23.6743 13.0348 24.0772C13.0348 24.0772 12.9152 24.3428 12.8134 24.5731M4.00696 0.903226H16.9665V3.1303C16.9665 3.37824 17.1701 3.58191 17.4181 3.58191H19.6452V15.1246L19.4681 14.6686C19.4016 14.4959 19.2334 14.3808 19.0474 14.3808H17.3251C17.1392 14.3808 16.9709 14.4959 16.9045 14.6686L16.5813 15.5098C16.1341 15.6338 15.7046 15.8109 15.3017 16.0411L14.4826 15.6781C14.3099 15.6028 14.1107 15.6382 13.9779 15.771L13.5705 16.1828H10.5155C10.2676 16.1828 10.0639 16.3865 10.0639 16.6344C10.0639 16.8824 10.2676 17.086 10.5155 17.086H12.6894C12.6186 17.21 12.6097 17.3605 12.6717 17.4934L12.9152 18.0424H10.5199C10.272 18.0424 10.0683 18.246 10.0683 18.494C10.0683 18.7419 10.272 18.9456 10.5199 18.9456H12.7293C12.6407 19.1581 12.5655 19.3751 12.5035 19.592L11.6667 19.9152C11.494 19.9817 11.3789 20.1499 11.3789 20.3359V21.4428H4.00696V0.903226ZM17.8697 1.5408L19.0076 2.67868H17.8697V1.5408ZM24.7103 19.9064L23.8735 19.5832C23.7495 19.136 23.568 18.7065 23.3422 18.2992L23.7052 17.4801C23.7805 17.3074 23.7451 17.1082 23.6123 16.9798L22.3947 15.7622C22.2619 15.6293 22.0626 15.5939 21.8899 15.6692L21.0708 16.0323C20.9026 15.9348 20.7255 15.8507 20.5484 15.771V3.1303C20.5484 3.01075 20.4997 2.89564 20.4156 2.81151L17.7369 0.132827C17.6528 0.0487034 17.5376 0 17.4181 0H3.55534C3.3074 0 3.10373 0.203669 3.10373 0.451613V3.1303H0.451613C0.203669 3.1303 0 3.32954 0 3.58191V25.0202C0 25.2682 0.203669 25.4719 0.451613 25.4719H12.8355L13.9779 26.6142C14.1107 26.747 14.3099 26.7824 14.4826 26.7071L15.3017 26.3441C15.7046 26.5699 16.1341 26.7514 16.5813 26.8754L16.9045 27.7122C16.9709 27.8849 17.1392 28 17.3251 28H19.0474C19.2334 28 19.4016 27.8849 19.4681 27.7122L19.7913 26.8754C20.2385 26.7514 20.6679 26.5743 21.0708 26.3441L21.8899 26.7071C22.0626 26.7824 22.2619 26.747 22.3947 26.6142L23.6123 25.3966C23.7451 25.2638 23.7805 25.0645 23.7052 24.8963L23.3422 24.0772C23.568 23.6743 23.7451 23.2448 23.8735 22.7976L24.7103 22.4744C24.883 22.408 24.9981 22.2397 24.9981 22.0538V20.3314C24.9981 20.1455 24.883 19.9772 24.7103 19.9108" fill="#B5985A"/>
<path d="M18.1898 23.7401C16.7819 23.7401 15.6396 22.5978 15.6396 21.1898C15.6396 19.7819 16.7819 18.6396 18.1898 18.6396C19.5978 18.6396 20.7401 19.7819 20.7401 21.1898C20.7401 22.5978 19.5978 23.7401 18.1898 23.7401ZM18.1898 17.7363C16.2816 17.7363 14.7363 19.2816 14.7363 21.1898C14.7363 23.0981 16.2816 24.6433 18.1898 24.6433C20.0981 24.6433 21.6433 23.0981 21.6433 21.1898C21.6433 19.2816 20.0981 17.7363 18.1898 17.7363Z" fill="#B5985A"/>
<path d="M8.32543 16.5104C8.13061 16.3555 7.84725 16.382 7.69228 16.5768L6.88204 17.5775L6.44813 17.1436C6.27103 16.9665 5.98766 16.9665 5.81056 17.1436C5.63346 17.3207 5.63346 17.604 5.81056 17.7811L6.59867 18.5693C6.69165 18.6578 6.81562 18.7065 6.93959 18.7021C7.06799 18.6977 7.18754 18.6357 7.26723 18.5338L8.39184 17.1436C8.54681 16.9488 8.52024 16.6654 8.32543 16.506" fill="#B5985A"/>
<path d="M10.5161 5.28164H17.5249C17.7729 5.28164 17.9765 5.07797 17.9765 4.83003C17.9765 4.58209 17.7729 4.37842 17.5249 4.37842H10.5161C10.2681 4.37842 10.0645 4.58209 10.0645 4.83003C10.0645 5.07797 10.2681 5.28164 10.5161 5.28164Z" fill="#B5985A"/>
<path d="M8.32543 4.71551C8.13061 4.56054 7.84725 4.58711 7.69228 4.78192L6.88204 5.78255L6.44813 5.34865C6.27103 5.17155 5.98766 5.17155 5.81056 5.34865C5.63346 5.52575 5.63346 5.80912 5.81056 5.98622L6.59867 6.77433C6.69165 6.86288 6.81562 6.91159 6.93959 6.90716C7.06799 6.90273 7.18754 6.84074 7.26723 6.73891L8.39184 5.34865C8.54681 5.15384 8.52024 4.87047 8.32543 4.71551Z" fill="#B5985A"/>
<path d="M8.32295 10.6125C8.12814 10.4575 7.84477 10.4841 7.68981 10.6789L6.88399 11.6795L6.45009 11.2456C6.27298 11.0685 5.98962 11.0685 5.81251 11.2456C5.63541 11.4227 5.63541 11.7061 5.81251 11.8832L6.60062 12.6713C6.68918 12.7599 6.81757 12.8086 6.94155 12.8041C7.06995 12.7953 7.18949 12.7377 7.26919 12.6359L8.39379 11.2456C8.54876 11.0508 8.52219 10.7674 8.32738 10.6125" fill="#B5985A"/>
<path d="M10.5161 7.14151H16.2675C16.5154 7.14151 16.7191 6.93784 16.7191 6.68989C16.7191 6.44195 16.5154 6.23828 16.2675 6.23828H10.5161C10.2681 6.23828 10.0645 6.44195 10.0645 6.68989C10.0645 6.93784 10.2681 7.14151 10.5161 7.14151Z" fill="#B5985A"/>
<path d="M10.5161 11.1796H17.5249C17.7729 11.1796 17.9765 10.9759 17.9765 10.728C17.9765 10.48 17.7729 10.2764 17.5249 10.2764H10.5161C10.2681 10.2764 10.0645 10.48 10.0645 10.728C10.0645 10.9759 10.2681 11.1796 10.5161 11.1796Z" fill="#B5985A"/>
<path d="M10.5161 13.039H16.2675C16.5154 13.039 16.7191 12.8353 16.7191 12.5874C16.7191 12.3394 16.5154 12.1357 16.2675 12.1357H10.5161C10.2681 12.1357 10.0645 12.3394 10.0645 12.5874C10.0645 12.8353 10.2681 13.039 10.5161 13.039Z" fill="#B5985A"/>
</g>
<defs>
<clipPath id="clip0_2982_17164">
<rect width="24.9981" height="28" fill="white"/>
</clipPath>
</defs>
</svg>
