<svg width="28" height="28" viewBox="0 0 28 28" fill="none" xmlns="http://www.w3.org/2000/svg">
<g clip-path="url(#clip0_2982_17167)">
<path d="M15.3618 27.0938H0.904204V7.67594C0.904204 7.42556 0.701306 7.22266 0.45092 7.22266C0.200535 7.22266 0.00195312 7.42987 0.00195312 7.67594V27.547C0.00195312 27.7974 0.204852 28.0003 0.455237 28.0003H15.3618C15.6122 28.0003 15.8151 27.7974 15.8151 27.547C15.8151 27.2967 15.6122 27.0938 15.3618 27.0938Z" fill="#B5985A"/>
<path d="M5.42065 1.54165V5.41831H1.54399L5.42065 1.54165ZM0.456111 6.32056H5.87393C6.12432 6.32056 6.32722 6.11766 6.32722 5.86728V0.902739H19.4207V12.1355C19.4207 12.3859 19.6235 12.5888 19.8739 12.5888C20.1243 12.5888 20.3272 12.3859 20.3272 12.1355V0.453772C20.3229 0.203387 20.12 0.000488281 19.8739 0.000488281H5.87393C5.75738 0.000488281 5.64513 0.0522922 5.55879 0.129998C5.51131 0.177485 0.184141 5.50465 0.136654 5.55214C-0.0403429 5.72913 -0.0403429 6.01406 0.136654 6.19105C0.222994 6.27739 0.335235 6.32488 0.456111 6.32488" fill="#B5985A"/>
<path d="M25.2909 23.4848C24.475 23.4762 23.7627 22.9236 23.5555 22.1293H27.022C26.8148 22.9193 26.1068 23.4762 25.2866 23.4848M26.9055 21.2227H23.6721L25.2866 16.6942L26.9055 21.2227ZM19.8731 25.2893V14.9027C19.8731 14.6523 20.076 14.4494 20.3264 14.4494C20.5768 14.4494 20.7797 14.6523 20.7797 14.9027V25.2893H19.8774H19.8731ZM22.8475 27.0938H17.801L18.7032 26.1916H21.9409L22.8432 27.0938H22.8475ZM15.1935 23.4848C14.3733 23.4762 13.6653 22.9236 13.4581 22.1293H16.9246C16.7217 22.9193 16.0094 23.4762 15.1892 23.4848M15.1935 16.6985L16.808 21.2271H13.5746L15.1935 16.6985ZM27.9718 21.5249L25.9298 15.8049H26.1932C26.4436 15.8049 26.6465 15.602 26.6465 15.3516C26.6465 15.1013 26.4436 14.8984 26.1932 14.8984H21.6776C21.6776 13.1068 18.9665 13.1068 18.9665 14.8984H14.2869C14.0365 14.8984 13.8336 15.1013 13.8336 15.3516C13.8336 15.602 14.0365 15.8049 14.2869 15.8049H14.5503L12.5083 21.5249C12.4911 21.5767 12.4824 21.6329 12.4824 21.689C12.4824 23.187 13.6955 24.4 15.1935 24.3957C16.6872 24.3957 17.9002 23.1827 17.9002 21.689C17.9002 21.6329 17.8916 21.5767 17.8743 21.5249L15.8324 15.8049H18.9665V25.2893H18.5133C18.3924 25.2893 18.2801 25.3368 18.1938 25.4232L16.8383 26.7787C16.7519 26.865 16.7044 26.9773 16.7044 27.0982V27.5514C16.7044 27.8018 16.9073 28.0047 17.1577 28.0047H23.4778C23.7282 28.0047 23.9311 27.8018 23.9311 27.5514V27.0982C23.9311 26.9773 23.8836 26.865 23.7973 26.7787L22.4417 25.4232C22.3554 25.3368 22.2431 25.2893 22.1223 25.2893H21.669V15.8049H24.6391L22.5971 21.5249C22.5799 21.5767 22.5712 21.6329 22.5712 21.689C22.5712 23.187 23.7843 24.4 25.2823 24.4C26.7803 24.4 27.9934 23.187 27.9934 21.689C27.9934 21.6329 27.9847 21.5767 27.9675 21.5249" fill="#B5985A"/>
<path d="M14.9043 5.41829C15.1547 5.41829 15.3576 5.21539 15.3576 4.965C15.3576 4.71462 15.1547 4.51172 14.9043 4.51172H9.48649C9.2361 4.51172 9.0332 4.71462 9.0332 4.965C9.0332 5.21539 9.2361 5.41829 9.48649 5.41829H14.9043Z" fill="#B5985A"/>
<path d="M17.1623 8.12939H9.03336C8.78298 8.12939 8.58008 8.33229 8.58008 8.58268C8.58008 8.83306 8.78298 9.03596 9.03336 9.03596H17.1623C17.4126 9.03596 17.6155 8.83306 17.6155 8.58268C17.6155 8.33229 17.4126 8.12939 17.1623 8.12939Z" fill="#B5985A"/>
<path d="M3.16032 9.03157H6.32035C6.57074 9.03157 6.77364 8.82867 6.77364 8.57828C6.77364 8.3279 6.57074 8.125 6.32035 8.125H3.16032C2.90993 8.125 2.70703 8.3279 2.70703 8.57828C2.70703 8.82867 2.90993 9.03157 3.16032 9.03157Z" fill="#B5985A"/>
<path d="M17.1602 10.8403H11.7423C11.492 10.8403 11.2891 11.0432 11.2891 11.2936C11.2891 11.544 11.492 11.7469 11.7423 11.7469H17.1602C17.4106 11.7469 17.6135 11.544 17.6135 11.2936C17.6135 11.0432 17.4106 10.8403 17.1602 10.8403Z" fill="#B5985A"/>
<path d="M3.16032 11.7425H9.03142C9.28181 11.7425 9.48471 11.5396 9.48471 11.2892C9.48471 11.0388 9.28181 10.8359 9.03142 10.8359H3.16032C2.90993 10.8359 2.70703 11.0388 2.70703 11.2892C2.70703 11.5396 2.90993 11.7425 3.16032 11.7425Z" fill="#B5985A"/>
<path d="M10.8402 13.5469H3.16032C2.90993 13.5469 2.70703 13.7498 2.70703 14.0002C2.70703 14.2505 2.90993 14.4534 3.16032 14.4534H10.8359C11.0863 14.4534 11.2892 14.2505 11.2892 14.0002C11.2892 13.7498 11.0863 13.5469 10.8359 13.5469" fill="#B5985A"/>
<path d="M10.9193 17.6311C11.1611 17.5663 11.3035 17.3203 11.2431 17.0785C11.1827 16.8411 10.9366 16.6943 10.6948 16.7547C8.77377 17.2469 8.57519 17.1346 8.53202 17.1562C8.41546 16.9447 8.59678 15.8007 7.68157 15.8007C6.98222 15.8007 6.60233 16.5734 6.17926 16.9792C6.2138 16.4957 6.28287 15.9259 5.96341 15.5805C5.82527 15.4294 5.62669 15.3474 5.41947 15.3517C4.50427 15.3517 3.56748 16.9317 3.11851 17.1605C2.86813 17.1864 2.69113 17.4066 2.71272 17.657C2.7343 17.8858 2.92857 18.0628 3.16168 18.0628C3.88262 18.0628 4.65968 16.69 5.30291 16.3015C5.32881 16.7806 4.99641 18.0628 5.87275 18.0628C6.7491 18.0628 7.14627 17.1562 7.5607 16.785C7.72474 18.4082 8.45863 18.2571 10.9193 17.6311Z" fill="#B5985A"/>
<path d="M5.87302 20.3207C6.61986 20.3207 7.22856 20.9294 7.22856 21.6762C7.22856 22.4231 6.61986 23.0318 5.87302 23.0318C5.12618 23.0318 4.51749 22.4231 4.51749 21.6762C4.51749 20.9294 5.12618 20.3207 5.87302 20.3207ZM6.01548 24.8579C5.92482 24.8276 5.82122 24.8276 5.73056 24.8579L4.97077 25.1126V23.7441C5.54493 23.9988 6.20111 23.9988 6.77527 23.7441V25.1126L6.01548 24.8579ZM4.65995 26.1702L5.87302 25.7644L7.08609 26.1702C7.32353 26.2479 7.57823 26.1227 7.65594 25.8853C7.67321 25.8378 7.67752 25.7903 7.67752 25.7428V23.0188C7.96676 22.6303 8.12649 22.1641 8.13081 21.6762C8.13081 20.4286 7.12063 19.4185 5.87302 19.4185C4.62541 19.4185 3.61523 20.4286 3.61523 21.6762C3.61523 22.1597 3.77496 22.6303 4.06852 23.0188V25.7428C4.06852 25.9932 4.27142 26.1961 4.5218 26.1961C4.56929 26.1961 4.61678 26.1875 4.66426 26.1745" fill="#B5985A"/>
</g>
<defs>
<clipPath id="clip0_2982_17167">
<rect width="27.9957" height="28" fill="white"/>
</clipPath>
</defs>
</svg>
