<svg width="22" height="28" viewBox="0 0 22 28" fill="none" xmlns="http://www.w3.org/2000/svg">
<g clip-path="url(#clip0_2982_17170)">
<path d="M18.7693 9.68875L19.0927 10.0121L19.5315 7.02502L16.5444 7.46384L16.9717 7.89112C17.1488 8.06819 17.1488 8.35304 16.9717 8.53011L12.9414 12.5604C12.7644 12.7374 12.4795 12.7374 12.3024 12.5604L9.04207 9.29612L2.5444 15.7938L3.70305 16.9524L8.72257 11.9329C8.89964 11.7558 9.18449 11.7558 9.36156 11.9329L12.6258 15.1933L18.1342 9.68491C18.3112 9.50784 18.5961 9.50784 18.7732 9.68491M12.3987 25.7366H9.56943V26.4179C9.56943 26.7913 9.87737 27.0993 10.2508 27.0993H11.7212C12.0946 27.0993 12.3987 26.7913 12.3987 26.4179V25.7366ZM13.5612 23.4732H8.40693V24.1545C8.40693 24.5279 8.71103 24.8359 9.08826 24.8359H12.8798C13.2532 24.8359 13.5612 24.5318 13.5612 24.1545V23.4732ZM14.6929 21.2059H7.27523V21.8873C7.27523 22.2607 7.57932 22.5686 7.95656 22.5686H14.0154C14.3888 22.5686 14.6929 22.2607 14.6929 21.8873V21.2059ZM4.5499 12.5103L8.72257 8.33764C8.89964 8.16057 9.18449 8.16057 9.36156 8.33764L12.6258 11.6019L16.017 8.21061L15.2741 7.46769C15.1548 7.34836 15.1125 7.16745 15.1663 7.00577C15.2164 6.85565 15.3434 6.74402 15.4935 6.70938C14.3233 5.58922 12.7374 4.90019 10.9898 4.90019C7.39071 4.90019 4.47292 7.81798 4.47292 11.4171C4.47292 11.8251 4.50371 12.187 4.55375 12.5103M5.39676 16.5406L4.02255 17.9148C3.95326 17.9841 3.86857 18.0264 3.78004 18.0418L4.64229 18.904L6.02035 18.2958C5.84713 17.5914 5.62772 17.0294 5.39676 16.5444M17.499 11.598L12.9414 16.1556C12.7644 16.3327 12.4795 16.3327 12.3024 16.1556L9.04207 12.8952L6.07039 15.8669C6.45532 16.6137 6.82101 17.5183 7.05582 18.8078C7.13665 19.2543 7.20209 19.7509 7.24828 20.3052H14.7275C14.7737 19.7509 14.8392 19.2582 14.92 18.8117C15.2818 16.8177 15.9478 15.7591 16.5329 14.7583C17.0371 13.8884 17.4721 13.0723 17.5067 11.6019M20.0819 9.49244L19.8548 11.0322C19.8317 11.2015 19.7124 11.3401 19.5507 11.394C19.3891 11.4479 19.212 11.4056 19.0888 11.2862L18.4498 10.6472L18.3728 10.7242C18.3959 10.9513 18.4036 11.1823 18.4036 11.4133C18.4036 13.2147 17.9032 14.1809 17.3066 15.2087C16.837 16.017 16.3019 16.8639 15.9478 18.2881L17.3258 18.8963L18.904 17.3181L18.2728 15.89C18.2112 15.7553 18.2227 15.5975 18.2997 15.4704C18.7732 14.6967 19.1273 13.8537 19.3352 12.9722C19.3698 12.826 19.4737 12.7066 19.6123 12.6566L21.0674 12.0946V9.86582L20.0819 9.48859V9.49244ZM18.2343 6.3052C18.2266 6.22821 18.2343 6.14737 18.2689 6.07424L18.9002 4.64614L17.322 3.06791L15.8939 3.70305C15.7591 3.76464 15.6013 3.75309 15.4743 3.67611C14.7006 3.19879 13.8576 2.8485 12.9761 2.64064C12.8298 2.60599 12.7105 2.50206 12.6604 2.36349L12.0984 0.904592H9.86967L9.30767 2.36349C9.25378 2.50206 9.13445 2.60599 8.99203 2.64064C8.11053 2.85235 7.26753 3.19879 6.49381 3.67611C6.36679 3.75309 6.20896 3.76464 6.07424 3.70305L4.64614 3.06791L3.07176 4.64229L3.7069 6.07039C3.76849 6.20511 3.75694 6.36294 3.67996 6.48996C3.20264 7.26368 2.85235 8.10668 2.64064 8.99203C2.60599 9.1383 2.50206 9.25378 2.36349 9.30767L0.908441 9.86967V12.0984L2.36349 12.6604C2.50206 12.7143 2.60599 12.8298 2.64064 12.9761C2.72917 13.3533 2.84465 13.719 2.98708 14.077L3.79929 13.2648C3.66071 12.7451 3.57602 12.1485 3.57602 11.4133C3.57602 7.31372 6.89799 3.9956 10.9937 3.9956C13.2263 3.9956 15.2318 4.98103 16.5906 6.54385L18.242 6.30135L18.2343 6.3052ZM2.2865 14.7699C2.09403 14.331 1.94006 13.8807 1.81303 13.4188L0.28485 12.8298C0.11548 12.7644 0 12.5988 0 12.4102V9.56173C0 9.37311 0.11548 9.20759 0.2887 9.1383L1.81688 8.54935C2.03629 7.7333 2.35964 6.95188 2.78306 6.22051L2.11713 4.72312C2.04014 4.55375 2.07864 4.35359 2.20951 4.21886L4.22271 2.20566C4.35359 2.07479 4.55375 2.03629 4.72697 2.11328L6.22436 2.77921C6.95573 2.35579 7.73715 2.03244 8.54935 1.81688L9.1383 0.288699C9.20759 0.11548 9.37311 0 9.56173 0H12.4102C12.5988 0 12.7644 0.11548 12.8298 0.288699L13.4188 1.81688C14.2348 2.03244 15.0162 2.35579 15.7437 2.77921L17.2411 2.11328C17.4105 2.03629 17.6107 2.07479 17.7454 2.20566L19.7586 4.21886C19.8895 4.34974 19.928 4.5499 19.851 4.71927C19.851 4.71927 19.3429 5.86637 19.2158 6.15122L19.9973 6.03574C20.1397 6.0165 20.2821 6.06269 20.3822 6.16277C20.4823 6.26285 20.5323 6.40528 20.5092 6.5477L20.2128 8.56475L21.6756 9.12675C21.8488 9.19219 21.9643 9.36156 21.9643 9.55018V12.3987C21.9643 12.5873 21.8488 12.7528 21.6756 12.8183L20.1474 13.4072C19.9318 14.2233 19.6046 15.0047 19.185 15.7322L19.8471 17.2296C19.9241 17.399 19.8856 17.5991 19.7547 17.73L17.7415 19.7432C17.6107 19.8741 17.4105 19.9126 17.2373 19.8356C17.2373 19.8356 15.9324 19.2582 15.7591 19.1812C15.6822 19.6508 15.6244 20.1743 15.5898 20.7633V20.771V21.868C15.5898 22.584 15.1125 23.1922 14.4581 23.3847V24.1314C14.4581 24.8589 13.9615 25.471 13.2956 25.6596V26.3987C13.2956 27.2686 12.5834 27.9808 11.7135 27.9808H10.2431C9.37311 27.9808 8.65714 27.2648 8.65714 26.3987V25.6596C7.9912 25.4748 7.49849 24.8589 7.49849 24.1353V23.3885C6.8441 23.1922 6.36679 22.584 6.36679 21.8719V20.7517C6.33214 20.1666 6.2744 19.647 6.19742 19.1812L4.71927 19.8356C4.5499 19.9126 4.34974 19.8741 4.21501 19.7432L2.20181 17.73C2.07094 17.5991 2.03244 17.399 2.10943 17.2257L2.2942 16.8139L1.57822 16.0979C1.40115 15.9208 1.40115 15.636 1.57822 15.4589L2.28265 14.7545L2.2865 14.7699Z" fill="#B5985A"/>
</g>
<defs>
<clipPath id="clip0_2982_17170">
<rect width="21.9681" height="28" fill="white"/>
</clipPath>
</defs>
</svg>
