<svg width="27" height="28" viewBox="0 0 27 28" fill="none" xmlns="http://www.w3.org/2000/svg">
<g clip-path="url(#clip0_2982_17163)">
<path d="M25.5033 21.4901L24.6926 21.8006C24.5555 21.8531 24.4506 21.9741 24.4143 22.1193C24.2852 22.6598 24.0715 23.172 23.781 23.6479C23.7044 23.773 23.6923 23.9303 23.7528 24.0674L24.1078 24.862L23.2728 25.6969L22.4783 25.342C22.3411 25.2815 22.1838 25.2936 22.0588 25.3702C21.5828 25.6606 21.0706 25.8744 20.5301 26.0035C20.3849 26.0357 20.2679 26.1406 20.2115 26.2818L19.8969 27.0925H18.7191L18.4085 26.2818C18.3561 26.1446 18.2351 26.0398 18.0899 26.0035C17.5494 25.8744 17.0372 25.6606 16.5612 25.3702C16.4362 25.2936 16.2789 25.2815 16.1417 25.342L15.3472 25.6969L14.5122 24.862L14.8672 24.0674C14.9277 23.9303 14.9156 23.773 14.839 23.6479C14.5485 23.172 14.3348 22.6598 14.2057 22.1193C14.1734 21.9741 14.0686 21.8571 13.9274 21.8006L13.1167 21.4901V20.3123L13.9274 20.0017C14.0645 19.9493 14.1694 19.8283 14.2057 19.6831C14.3348 19.1426 14.5485 18.6304 14.839 18.1544C14.9156 18.0294 14.9277 17.8721 14.8672 17.7349L14.5122 16.9404L15.3472 16.1054L16.1417 16.4604C16.2789 16.5209 16.4362 16.5088 16.5612 16.4322C17.0372 16.1417 17.5494 15.928 18.0899 15.7989C18.2351 15.7666 18.3521 15.6618 18.4085 15.5206L18.7191 14.7099H19.8969L20.2115 15.5206C20.2639 15.6577 20.3849 15.7626 20.5301 15.7989C21.0706 15.928 21.5828 16.1417 22.0588 16.4322C22.1838 16.5088 22.3411 16.5209 22.4783 16.4604L23.2728 16.1054L24.1078 16.9404L23.7528 17.7349C23.6923 17.8721 23.7044 18.0294 23.781 18.1544C24.0755 18.6304 24.2852 19.1426 24.4143 19.6831C24.4506 19.8283 24.5514 19.9453 24.6926 20.0017L25.5033 20.3123V21.4901ZM12.2092 21.3489H10.9064V16.1296H12.2092V21.3489ZM16.3071 12.314V15.5287L16.295 15.5367L15.4278 15.1495C15.2867 15.089 15.1294 15.1011 15.0043 15.1818V12.314H16.3071ZM0.923653 23.4785L0.903486 23.4584V0.923653L0.923653 0.903486H15.1778V3.1501C15.1778 3.52924 15.4883 3.83982 15.8675 3.83982H18.1141V13.9113C18.0576 13.9597 18.0133 14.0202 17.985 14.0928L17.6462 14.9761C17.497 15.0164 17.3518 15.0648 17.2106 15.1173V11.8623C17.2106 11.6122 17.0089 11.4105 16.7589 11.4105H14.5526C14.3025 11.4105 14.1008 11.6122 14.1008 11.8623V16.0691L13.6531 16.5169C13.52 16.65 13.4837 16.8476 13.5604 17.021L13.9476 17.8882C13.7056 18.3158 13.52 18.7675 13.3869 19.2394L13.1167 19.3443V15.6779C13.1167 15.4278 12.915 15.2262 12.6649 15.2262H10.4587C10.2086 15.2262 10.0069 15.4278 10.0069 15.6779V21.8006C10.0069 22.0507 10.2086 22.2524 10.4587 22.2524H12.5802L13.3869 22.563C13.4757 22.8776 13.5886 23.1841 13.7257 23.4826H0.923653V23.4785ZM16.0853 1.54077L17.4768 2.9323H16.0853V1.54077ZM26.1204 19.5782L25.2371 19.2394C25.104 18.7675 24.9185 18.3158 24.6765 17.8882L25.0637 17.021C25.1403 16.8516 25.104 16.65 24.9709 16.5169L23.6963 15.2463C23.5632 15.1132 23.3656 15.0769 23.1922 15.1536L22.325 15.5408C21.8974 15.2988 21.4457 15.1132 20.9738 14.9801L20.635 14.0968C20.5664 13.9234 20.401 13.8064 20.2155 13.8064H19.0256V3.58168C19.0256 3.3316 18.9329 3.10573 18.7554 2.92826L16.0974 0.270239C15.9118 0.0927687 15.686 0 15.4359 0H0.923653C0.415442 0 0 0.415442 0 0.923653V23.4543C0 23.9666 0.415442 24.378 0.923653 24.378H13.7338L13.5563 24.7773C13.4797 24.9467 13.516 25.1484 13.6491 25.2815L14.9196 26.552C15.0527 26.6851 15.2504 26.7214 15.4238 26.6448L16.291 26.2576C16.7185 26.4996 17.1703 26.6851 17.6422 26.8182L17.981 27.7015C18.0496 27.875 18.2149 27.9919 18.4005 27.9919H20.1994C20.3849 27.9919 20.5543 27.879 20.6188 27.7015L20.9577 26.8182C21.4296 26.6851 21.8813 26.4996 22.3088 26.2576L23.176 26.6448C23.3454 26.7214 23.5471 26.6851 23.6802 26.552L24.9507 25.2815C25.0838 25.1484 25.1201 24.9507 25.0435 24.7773L24.6563 23.9101C24.8983 23.4826 25.0838 23.0308 25.2169 22.5589L26.1003 22.2201C26.2737 22.1515 26.3907 21.9862 26.3907 21.8006V20.0017C26.3907 19.8162 26.2777 19.6468 26.1003 19.5823" fill="#B5985A"/>
<path d="M8.11253 21.3491H6.80974V15.2103H8.11253V21.3491ZM8.56427 14.3027H6.35799C6.10792 14.3027 5.90625 14.5044 5.90625 14.7545V21.7968C5.90625 22.0469 6.10792 22.2486 6.35799 22.2486H8.56427C8.81435 22.2486 9.01602 22.0469 9.01602 21.7968V14.7545C9.01602 14.5044 8.81435 14.3027 8.56427 14.3027Z" fill="#B5985A"/>
<path d="M4.01292 21.3488H2.71013V17.9406H4.01292V21.3488ZM4.46466 17.0371H2.25838C2.00831 17.0371 1.80664 17.2388 1.80664 17.4889V21.8006C1.80664 22.0506 2.00831 22.2523 2.25838 22.2523H4.46466C4.71474 22.2523 4.91641 22.0506 4.91641 21.8006V17.4889C4.91641 17.2388 4.71474 17.0371 4.46466 17.0371Z" fill="#B5985A"/>
<path d="M7.59912 11.5799C7.45795 11.5355 7.30064 11.5597 7.18367 11.6525L3.08572 14.8429C2.88808 14.9962 2.85178 15.2785 3.00505 15.4762C3.09379 15.5891 3.22689 15.6496 3.35999 15.6496C3.45679 15.6496 3.5536 15.6173 3.6383 15.5528L7.54668 12.5076L11.4147 13.7619C11.5761 13.8144 11.7535 13.77 11.8745 13.649L15.0569 10.4384V10.4787C15.0246 10.7248 15.2021 10.9507 15.4522 10.9789H15.5046C15.7305 10.9789 15.9281 10.8095 15.9523 10.5796L16.1016 9.24855C16.1177 9.11545 16.0693 8.97831 15.9765 8.88151C15.8838 8.78471 15.7507 8.73631 15.6135 8.74841L14.2785 8.86538C14.0284 8.88555 13.8469 9.10738 13.8671 9.35342C13.8872 9.60349 14.1091 9.785 14.3551 9.76483L14.46 9.75676L11.4268 12.8141L7.59508 11.5718L7.59912 11.5799Z" fill="#B5985A"/>
<path d="M2.25838 10.967H3.02877C3.27884 10.967 3.48051 10.7653 3.48051 10.5152C3.48051 10.2651 3.27884 10.0635 3.02877 10.0635H2.25838C2.00831 10.0635 1.80664 10.2651 1.80664 10.5152C1.80664 10.7653 2.00831 10.967 2.25838 10.967Z" fill="#B5985A"/>
<path d="M4.63534 10.967H10.629C10.8791 10.967 11.0807 10.7653 11.0807 10.5152C11.0807 10.2651 10.8791 10.0635 10.629 10.0635H4.63534C4.38526 10.0635 4.18359 10.2651 4.18359 10.5152C4.18359 10.7653 4.38526 10.967 4.63534 10.967Z" fill="#B5985A"/>
<path d="M2.25838 8.82927H3.02877C3.27884 8.82927 3.48051 8.6276 3.48051 8.37752C3.48051 8.12745 3.27884 7.92578 3.02877 7.92578H2.25838C2.00831 7.92578 1.80664 8.12745 1.80664 8.37752C1.80664 8.6276 2.00831 8.82927 2.25838 8.82927Z" fill="#B5985A"/>
<path d="M4.63534 8.82927H10.629C10.8791 8.82927 11.0807 8.6276 11.0807 8.37752C11.0807 8.12745 10.8791 7.92578 10.629 7.92578H4.63534C4.38526 7.92578 4.18359 8.12745 4.18359 8.37752C4.18359 8.6276 4.38526 8.82927 4.63534 8.82927Z" fill="#B5985A"/>
<path d="M19.3085 23.5875C17.8282 23.5875 16.6222 22.3815 16.6222 20.9013C16.6222 19.421 17.8282 18.215 19.3085 18.215C20.7888 18.215 21.9948 19.421 21.9948 20.9013C21.9948 22.3815 20.7888 23.5875 19.3085 23.5875ZM19.3085 17.3115C17.3281 17.3115 15.7188 18.9209 15.7188 20.9013C15.7188 22.8817 17.3281 24.491 19.3085 24.491C21.2889 24.491 22.8982 22.8817 22.8982 20.9013C22.8982 18.9209 21.2889 17.3115 19.3085 17.3115Z" fill="#B5985A"/>
</g>
<defs>
<clipPath id="clip0_2982_17163">
<rect width="26.4068" height="28" fill="white"/>
</clipPath>
</defs>
</svg>
