<svg width="1229" height="1026" viewBox="0 0 1229 1026" fill="none" xmlns="http://www.w3.org/2000/svg">
<rect width="1229" height="237" rx="16" transform="matrix(-1 0 0 1 1229 0)" fill="#F6F6F6"/>
<rect x="-0.25" y="0.25" width="0.5" height="23.5" transform="matrix(-1 0 0 1 1195.5 65)" fill="url(#paint0_linear_5304_17875)" stroke="url(#paint1_linear_5304_17875)" stroke-width="0.5"/>
<rect width="73" height="14" rx="7" transform="matrix(-1 0 0 1 1196 67)" fill="url(#paint2_linear_5304_17875)"/>
<rect width="622" height="17.5" rx="8.75" transform="matrix(-1 0 0 1 1196 35)" fill="url(#paint3_linear_5304_17875)"/>
<rect width="14" height="12" rx="6" transform="matrix(-1 0 0 1 42 200)" fill="url(#paint4_linear_5304_17875)"/>
<rect width="811" height="12.25" rx="6.125" transform="matrix(-1 0 0 1 1196 105)" fill="url(#paint5_linear_5304_17875)"/>
<rect width="858" height="12.25" rx="6.125" transform="matrix(-1 0 0 1 1196 122.5)" fill="url(#paint6_linear_5304_17875)"/>
<rect width="679" height="12.25" rx="6.125" transform="matrix(-1 0 0 1 1196 140)" fill="url(#paint7_linear_5304_17875)"/>
<rect width="59" height="14" rx="7" transform="matrix(-1 0 0 1 121 199)" fill="url(#paint8_linear_5304_17875)"/>
<rect width="1229" height="237" rx="16" transform="matrix(-1 0 0 1 1229 263)" fill="#F6F6F6"/>
<rect x="-0.25" y="0.25" width="0.5" height="23.5" transform="matrix(-1 0 0 1 1195.5 328)" fill="url(#paint9_linear_5304_17875)" stroke="url(#paint10_linear_5304_17875)" stroke-width="0.5"/>
<rect width="73" height="14" rx="7" transform="matrix(-1 0 0 1 1196 330)" fill="url(#paint11_linear_5304_17875)"/>
<rect width="622" height="17.5" rx="8.75" transform="matrix(-1 0 0 1 1196 298)" fill="url(#paint12_linear_5304_17875)"/>
<rect width="14" height="12" rx="6" transform="matrix(-1 0 0 1 42 463)" fill="url(#paint13_linear_5304_17875)"/>
<rect width="811" height="12.25" rx="6.125" transform="matrix(-1 0 0 1 1196 368)" fill="url(#paint14_linear_5304_17875)"/>
<rect width="858" height="12.25" rx="6.125" transform="matrix(-1 0 0 1 1196 385.5)" fill="url(#paint15_linear_5304_17875)"/>
<rect width="679" height="12.25" rx="6.125" transform="matrix(-1 0 0 1 1196 403)" fill="url(#paint16_linear_5304_17875)"/>
<rect width="59" height="14" rx="7" transform="matrix(-1 0 0 1 121 462)" fill="url(#paint17_linear_5304_17875)"/>
<rect width="1229" height="237" rx="16" transform="matrix(-1 0 0 1 1229 526)" fill="#F6F6F6"/>
<rect x="-0.25" y="0.25" width="0.5" height="23.5" transform="matrix(-1 0 0 1 1195.5 591)" fill="url(#paint18_linear_5304_17875)" stroke="url(#paint19_linear_5304_17875)" stroke-width="0.5"/>
<rect width="73" height="14" rx="7" transform="matrix(-1 0 0 1 1196 593)" fill="url(#paint20_linear_5304_17875)"/>
<rect width="622" height="17.5" rx="8.75" transform="matrix(-1 0 0 1 1196 561)" fill="url(#paint21_linear_5304_17875)"/>
<rect width="14" height="12" rx="6" transform="matrix(-1 0 0 1 42 726)" fill="url(#paint22_linear_5304_17875)"/>
<rect width="811" height="12.25" rx="6.125" transform="matrix(-1 0 0 1 1196 631)" fill="url(#paint23_linear_5304_17875)"/>
<rect width="858" height="12.25" rx="6.125" transform="matrix(-1 0 0 1 1196 648.5)" fill="url(#paint24_linear_5304_17875)"/>
<rect width="679" height="12.25" rx="6.125" transform="matrix(-1 0 0 1 1196 666)" fill="url(#paint25_linear_5304_17875)"/>
<rect width="59" height="14" rx="7" transform="matrix(-1 0 0 1 121 725)" fill="url(#paint26_linear_5304_17875)"/>
<rect width="1229" height="237" rx="16" transform="matrix(-1 0 0 1 1229 789)" fill="#F6F6F6"/>
<rect x="-0.25" y="0.25" width="0.5" height="23.5" transform="matrix(-1 0 0 1 1195.5 854)" fill="url(#paint27_linear_5304_17875)" stroke="url(#paint28_linear_5304_17875)" stroke-width="0.5"/>
<rect width="73" height="14" rx="7" transform="matrix(-1 0 0 1 1196 856)" fill="url(#paint29_linear_5304_17875)"/>
<rect width="622" height="17.5" rx="8.75" transform="matrix(-1 0 0 1 1196 824)" fill="url(#paint30_linear_5304_17875)"/>
<rect width="14" height="12" rx="6" transform="matrix(-1 0 0 1 42 989)" fill="url(#paint31_linear_5304_17875)"/>
<rect width="811" height="12.25" rx="6.125" transform="matrix(-1 0 0 1 1196 894)" fill="url(#paint32_linear_5304_17875)"/>
<rect width="858" height="12.25" rx="6.125" transform="matrix(-1 0 0 1 1196 911.5)" fill="url(#paint33_linear_5304_17875)"/>
<rect width="679" height="12.25" rx="6.125" transform="matrix(-1 0 0 1 1196 929)" fill="url(#paint34_linear_5304_17875)"/>
<rect width="59" height="14" rx="7" transform="matrix(-1 0 0 1 121 988)" fill="url(#paint35_linear_5304_17875)"/>
<defs>
<linearGradient id="paint0_linear_5304_17875" x1="1" y1="12.2105" x2="7.71521e-09" y2="12.2105" gradientUnits="userSpaceOnUse">
<stop stop-color="#DBDBDB" stop-opacity="0.05"/>
<stop offset="0.5" stop-color="#DBDBDB"/>
</linearGradient>
<linearGradient id="paint1_linear_5304_17875" x1="1" y1="12.2105" x2="7.71521e-09" y2="12.2105" gradientUnits="userSpaceOnUse">
<stop stop-color="#DBDBDB" stop-opacity="0.05"/>
<stop offset="0.5" stop-color="#DBDBDB"/>
</linearGradient>
<linearGradient id="paint2_linear_5304_17875" x1="73" y1="7.12281" x2="5.6321e-07" y2="7.12281" gradientUnits="userSpaceOnUse">
<stop stop-color="#DBDBDB" stop-opacity="0.05"/>
<stop offset="0.5" stop-color="#DBDBDB"/>
</linearGradient>
<linearGradient id="paint3_linear_5304_17875" x1="622" y1="8.90351" x2="4.79904e-06" y2="8.90384" gradientUnits="userSpaceOnUse">
<stop stop-color="#DBDBDB" stop-opacity="0.05"/>
<stop offset="0.5" stop-color="#DBDBDB"/>
</linearGradient>
<linearGradient id="paint4_linear_5304_17875" x1="14" y1="6.10526" x2="1.08013e-07" y2="6.10526" gradientUnits="userSpaceOnUse">
<stop stop-color="#DBDBDB" stop-opacity="0.05"/>
<stop offset="0.5" stop-color="#DBDBDB"/>
</linearGradient>
<linearGradient id="paint5_linear_5304_17875" x1="811" y1="6.23245" x2="6.25785e-06" y2="6.23327" gradientUnits="userSpaceOnUse">
<stop stop-color="#DBDBDB" stop-opacity="0.05"/>
<stop offset="0.5" stop-color="#DBDBDB"/>
</linearGradient>
<linearGradient id="paint6_linear_5304_17875" x1="858" y1="6.23245" x2="6.62061e-06" y2="6.23337" gradientUnits="userSpaceOnUse">
<stop stop-color="#DBDBDB" stop-opacity="0.05"/>
<stop offset="0.5" stop-color="#DBDBDB"/>
</linearGradient>
<linearGradient id="paint7_linear_5304_17875" x1="679" y1="6.23245" x2="5.2391e-06" y2="6.23303" gradientUnits="userSpaceOnUse">
<stop stop-color="#DBDBDB" stop-opacity="0.05"/>
<stop offset="0.5" stop-color="#DBDBDB"/>
</linearGradient>
<linearGradient id="paint8_linear_5304_17875" x1="59" y1="7.12281" x2="4.55197e-07" y2="7.12281" gradientUnits="userSpaceOnUse">
<stop stop-color="#DBDBDB" stop-opacity="0.05"/>
<stop offset="0.5" stop-color="#DBDBDB"/>
</linearGradient>
<linearGradient id="paint9_linear_5304_17875" x1="1" y1="12.2105" x2="7.71521e-09" y2="12.2105" gradientUnits="userSpaceOnUse">
<stop stop-color="#DBDBDB" stop-opacity="0.05"/>
<stop offset="0.5" stop-color="#DBDBDB"/>
</linearGradient>
<linearGradient id="paint10_linear_5304_17875" x1="1" y1="12.2105" x2="7.71521e-09" y2="12.2105" gradientUnits="userSpaceOnUse">
<stop stop-color="#DBDBDB" stop-opacity="0.05"/>
<stop offset="0.5" stop-color="#DBDBDB"/>
</linearGradient>
<linearGradient id="paint11_linear_5304_17875" x1="73" y1="7.12281" x2="5.6321e-07" y2="7.12281" gradientUnits="userSpaceOnUse">
<stop stop-color="#DBDBDB" stop-opacity="0.05"/>
<stop offset="0.5" stop-color="#DBDBDB"/>
</linearGradient>
<linearGradient id="paint12_linear_5304_17875" x1="622" y1="8.90351" x2="4.79904e-06" y2="8.90384" gradientUnits="userSpaceOnUse">
<stop stop-color="#DBDBDB" stop-opacity="0.05"/>
<stop offset="0.5" stop-color="#DBDBDB"/>
</linearGradient>
<linearGradient id="paint13_linear_5304_17875" x1="14" y1="6.10526" x2="1.08013e-07" y2="6.10526" gradientUnits="userSpaceOnUse">
<stop stop-color="#DBDBDB" stop-opacity="0.05"/>
<stop offset="0.5" stop-color="#DBDBDB"/>
</linearGradient>
<linearGradient id="paint14_linear_5304_17875" x1="811" y1="6.23245" x2="6.25785e-06" y2="6.23327" gradientUnits="userSpaceOnUse">
<stop stop-color="#DBDBDB" stop-opacity="0.05"/>
<stop offset="0.5" stop-color="#DBDBDB"/>
</linearGradient>
<linearGradient id="paint15_linear_5304_17875" x1="858" y1="6.23245" x2="6.62061e-06" y2="6.23337" gradientUnits="userSpaceOnUse">
<stop stop-color="#DBDBDB" stop-opacity="0.05"/>
<stop offset="0.5" stop-color="#DBDBDB"/>
</linearGradient>
<linearGradient id="paint16_linear_5304_17875" x1="679" y1="6.23245" x2="5.2391e-06" y2="6.23303" gradientUnits="userSpaceOnUse">
<stop stop-color="#DBDBDB" stop-opacity="0.05"/>
<stop offset="0.5" stop-color="#DBDBDB"/>
</linearGradient>
<linearGradient id="paint17_linear_5304_17875" x1="59" y1="7.12281" x2="4.55197e-07" y2="7.12281" gradientUnits="userSpaceOnUse">
<stop stop-color="#DBDBDB" stop-opacity="0.05"/>
<stop offset="0.5" stop-color="#DBDBDB"/>
</linearGradient>
<linearGradient id="paint18_linear_5304_17875" x1="1" y1="12.2105" x2="7.71521e-09" y2="12.2105" gradientUnits="userSpaceOnUse">
<stop stop-color="#DBDBDB" stop-opacity="0.05"/>
<stop offset="0.5" stop-color="#DBDBDB"/>
</linearGradient>
<linearGradient id="paint19_linear_5304_17875" x1="1" y1="12.2105" x2="7.71521e-09" y2="12.2105" gradientUnits="userSpaceOnUse">
<stop stop-color="#DBDBDB" stop-opacity="0.05"/>
<stop offset="0.5" stop-color="#DBDBDB"/>
</linearGradient>
<linearGradient id="paint20_linear_5304_17875" x1="73" y1="7.12281" x2="5.6321e-07" y2="7.12281" gradientUnits="userSpaceOnUse">
<stop stop-color="#DBDBDB" stop-opacity="0.05"/>
<stop offset="0.5" stop-color="#DBDBDB"/>
</linearGradient>
<linearGradient id="paint21_linear_5304_17875" x1="622" y1="8.90351" x2="4.79904e-06" y2="8.90384" gradientUnits="userSpaceOnUse">
<stop stop-color="#DBDBDB" stop-opacity="0.05"/>
<stop offset="0.5" stop-color="#DBDBDB"/>
</linearGradient>
<linearGradient id="paint22_linear_5304_17875" x1="14" y1="6.10526" x2="1.08013e-07" y2="6.10526" gradientUnits="userSpaceOnUse">
<stop stop-color="#DBDBDB" stop-opacity="0.05"/>
<stop offset="0.5" stop-color="#DBDBDB"/>
</linearGradient>
<linearGradient id="paint23_linear_5304_17875" x1="811" y1="6.23245" x2="6.25785e-06" y2="6.23327" gradientUnits="userSpaceOnUse">
<stop stop-color="#DBDBDB" stop-opacity="0.05"/>
<stop offset="0.5" stop-color="#DBDBDB"/>
</linearGradient>
<linearGradient id="paint24_linear_5304_17875" x1="858" y1="6.23245" x2="6.62061e-06" y2="6.23337" gradientUnits="userSpaceOnUse">
<stop stop-color="#DBDBDB" stop-opacity="0.05"/>
<stop offset="0.5" stop-color="#DBDBDB"/>
</linearGradient>
<linearGradient id="paint25_linear_5304_17875" x1="679" y1="6.23245" x2="5.2391e-06" y2="6.23303" gradientUnits="userSpaceOnUse">
<stop stop-color="#DBDBDB" stop-opacity="0.05"/>
<stop offset="0.5" stop-color="#DBDBDB"/>
</linearGradient>
<linearGradient id="paint26_linear_5304_17875" x1="59" y1="7.12281" x2="4.55197e-07" y2="7.12281" gradientUnits="userSpaceOnUse">
<stop stop-color="#DBDBDB" stop-opacity="0.05"/>
<stop offset="0.5" stop-color="#DBDBDB"/>
</linearGradient>
<linearGradient id="paint27_linear_5304_17875" x1="1" y1="12.2105" x2="7.71521e-09" y2="12.2105" gradientUnits="userSpaceOnUse">
<stop stop-color="#DBDBDB" stop-opacity="0.05"/>
<stop offset="0.5" stop-color="#DBDBDB"/>
</linearGradient>
<linearGradient id="paint28_linear_5304_17875" x1="1" y1="12.2105" x2="7.71521e-09" y2="12.2105" gradientUnits="userSpaceOnUse">
<stop stop-color="#DBDBDB" stop-opacity="0.05"/>
<stop offset="0.5" stop-color="#DBDBDB"/>
</linearGradient>
<linearGradient id="paint29_linear_5304_17875" x1="73" y1="7.12281" x2="5.6321e-07" y2="7.12281" gradientUnits="userSpaceOnUse">
<stop stop-color="#DBDBDB" stop-opacity="0.05"/>
<stop offset="0.5" stop-color="#DBDBDB"/>
</linearGradient>
<linearGradient id="paint30_linear_5304_17875" x1="622" y1="8.90351" x2="4.79904e-06" y2="8.90384" gradientUnits="userSpaceOnUse">
<stop stop-color="#DBDBDB" stop-opacity="0.05"/>
<stop offset="0.5" stop-color="#DBDBDB"/>
</linearGradient>
<linearGradient id="paint31_linear_5304_17875" x1="14" y1="6.10526" x2="1.08013e-07" y2="6.10526" gradientUnits="userSpaceOnUse">
<stop stop-color="#DBDBDB" stop-opacity="0.05"/>
<stop offset="0.5" stop-color="#DBDBDB"/>
</linearGradient>
<linearGradient id="paint32_linear_5304_17875" x1="811" y1="6.23245" x2="6.25785e-06" y2="6.23327" gradientUnits="userSpaceOnUse">
<stop stop-color="#DBDBDB" stop-opacity="0.05"/>
<stop offset="0.5" stop-color="#DBDBDB"/>
</linearGradient>
<linearGradient id="paint33_linear_5304_17875" x1="858" y1="6.23245" x2="6.62061e-06" y2="6.23337" gradientUnits="userSpaceOnUse">
<stop stop-color="#DBDBDB" stop-opacity="0.05"/>
<stop offset="0.5" stop-color="#DBDBDB"/>
</linearGradient>
<linearGradient id="paint34_linear_5304_17875" x1="679" y1="6.23245" x2="5.2391e-06" y2="6.23303" gradientUnits="userSpaceOnUse">
<stop stop-color="#DBDBDB" stop-opacity="0.05"/>
<stop offset="0.5" stop-color="#DBDBDB"/>
</linearGradient>
<linearGradient id="paint35_linear_5304_17875" x1="59" y1="7.12281" x2="4.55197e-07" y2="7.12281" gradientUnits="userSpaceOnUse">
<stop stop-color="#DBDBDB" stop-opacity="0.05"/>
<stop offset="0.5" stop-color="#DBDBDB"/>
</linearGradient>
</defs>
</svg>
