<svg width="29" height="20" viewBox="0 0 29 20" fill="none" xmlns="http://www.w3.org/2000/svg">
<g clip-path="url(#clip0_2982_17158)">
<mask id="path-1-inside-1_2982_17158" fill="white">
<path d="M6.42179 0.271666C6.26328 0.342726 6.07196 0.490309 5.98997 0.59963C5.54175 1.18997 1.0869 7.51969 1.01037 7.68367C0.797195 8.12096 0.868254 8.6457 1.19075 9.001C1.36567 9.19231 2.8907 10.2965 3.21867 10.4659C3.44824 10.5862 3.94566 10.5698 4.25176 10.4222L4.53053 10.2965L5.04981 10.6627C5.50896 10.9852 5.58548 11.0617 5.66747 11.2858C5.71667 11.4225 5.84239 11.745 5.94078 12.0019L6.12116 12.4665L5.90798 12.7835C5.60188 13.2372 5.50896 13.5706 5.53629 14.0462C5.57455 14.6201 5.80959 15.0356 6.29607 15.4018C6.52018 15.5712 6.72243 15.6478 7.17065 15.7407C7.28543 15.768 7.3237 15.8117 7.35649 15.9757C7.45488 16.5497 7.8703 17.0799 8.42238 17.3422C8.67382 17.468 8.79954 17.4898 9.19856 17.4953H9.67411L9.83263 17.7413C10.1989 18.3207 10.8275 18.6924 11.4287 18.6978C11.6255 18.6978 11.8605 18.6814 11.9589 18.6596C12.1229 18.6213 12.1338 18.6322 12.194 18.8071C12.2869 19.0914 12.7023 19.5177 13.0576 19.6927C13.32 19.8184 13.4402 19.8457 13.8065 19.8457C14.3093 19.8457 14.6428 19.7418 15.0035 19.4631L15.2386 19.2827L15.5392 19.4685C16.3318 19.955 17.2446 19.9004 17.8896 19.3319C18.1465 19.1078 18.4089 18.5885 18.4526 18.2113L18.4909 17.9216L18.7697 17.8888C19.5677 17.7905 20.1909 17.1291 20.2783 16.2764L20.3111 15.9211L20.5297 15.8555C20.9014 15.7461 21.1802 15.5767 21.4371 15.2979C21.6886 15.0301 21.9236 14.5327 21.9236 14.2703C21.9236 14.161 21.9619 14.1336 22.2078 14.0845C23.066 13.8986 23.6236 13.2919 23.7165 12.4282L23.7547 12.0893L24.1975 11.9581L24.6457 11.827L24.8644 12.0456C25.1705 12.3517 25.5749 12.472 25.9849 12.3845C26.4495 12.2861 28.1112 11.7395 28.2971 11.6247C28.6195 11.4279 28.8655 10.9852 28.8655 10.6026C28.8655 10.3894 26.2199 1.86776 26.0942 1.67645C25.8373 1.28289 25.2907 1.02052 24.8862 1.09704C24.5965 1.14624 22.8474 1.69831 22.6123 1.80763C22.2625 1.97708 21.9236 2.47996 21.9236 2.83526C21.9236 2.90085 21.7323 2.98284 21.2021 3.14683C20.8031 3.27254 20.404 3.3928 20.322 3.42013C20.2182 3.45292 19.3163 3.39826 17.507 3.25068C14.4897 2.99377 14.5444 2.99377 13.9103 3.38187L13.5332 3.61691L12.9866 3.57318C12.6859 3.54585 12.0573 3.54038 11.5927 3.56225L10.7455 3.59504L10.3628 3.32721C9.69051 2.86806 9.72877 2.91178 9.78343 2.72594C9.84356 2.52916 9.76703 2.03174 9.65225 1.85683C9.60852 1.78577 9.51559 1.67645 9.45 1.61632C9.24229 1.41954 7.60793 0.304462 7.41115 0.217005C7.12692 0.102219 6.74429 0.124083 6.42179 0.271666ZM7.79378 1.85136C8.242 2.16293 8.61369 2.4417 8.61916 2.46903C8.64649 2.54556 3.80901 9.35083 3.71608 9.36723C3.61769 9.38362 2.04893 8.26854 2.06533 8.18655C2.08172 8.10456 6.90281 1.28836 6.94107 1.28836C6.96293 1.28836 7.34009 1.5398 7.79378 1.85136ZM26.4113 6.4538C27.1273 8.73863 27.6958 10.6244 27.6739 10.6408C27.6193 10.6955 25.8646 11.2366 25.7608 11.2366C25.6843 11.2366 25.4055 10.3948 24.3724 7.07147C23.6563 4.77572 23.0933 2.88445 23.1152 2.86259C23.1863 2.79153 24.848 2.28318 24.9846 2.28865C25.1103 2.29958 25.165 2.4581 26.4113 6.4538ZM9.67411 4.26737C10.3355 4.73199 10.4066 4.74839 11.2757 4.74292L12.0245 4.73199L11.5271 5.5355C10.7892 6.74897 10.7509 6.83096 10.7291 7.27918C10.7017 7.7766 10.8439 8.12642 11.2101 8.47079C11.5599 8.79875 11.8059 8.89714 12.2814 8.90261C12.6258 8.90807 12.7133 8.88621 13.074 8.7113C13.3965 8.54731 13.648 8.34507 14.3148 7.711C14.9871 7.07147 15.1785 6.91842 15.3042 6.91842C15.4791 6.91842 15.3643 6.8419 19.4639 9.75532C20.9506 10.8157 22.2461 11.7504 22.3445 11.8434C22.5522 12.0347 22.6123 12.2588 22.5249 12.5212C22.3937 12.9256 21.8525 13.0787 21.4808 12.8218C21.377 12.7507 20.8304 12.3626 20.2619 11.9581C19.6989 11.5537 19.1523 11.2038 19.0539 11.182C18.8407 11.1328 18.5838 11.2312 18.4581 11.4061C18.3488 11.5646 18.3433 11.8871 18.4526 12.0401C18.4964 12.1003 18.9938 12.4829 19.5568 12.8819C20.1253 13.2755 20.6281 13.6526 20.6828 13.7128C20.8031 13.8494 20.8031 14.2047 20.6883 14.407C20.5024 14.7131 20.0761 14.8278 19.7317 14.6529C19.6442 14.6037 19.125 14.2484 18.5784 13.8603C17.7694 13.2809 17.5562 13.1498 17.4032 13.1498C17.0643 13.1498 16.7855 13.4012 16.7855 13.7018C16.7855 13.9587 16.9713 14.1391 17.9607 14.8442C19.0156 15.5931 19.1359 15.7243 19.1359 16.0741C19.1359 16.4786 18.8571 16.7574 18.4526 16.7574C18.1793 16.7574 17.9498 16.648 17.4032 16.26C17.1353 16.0741 16.8565 15.8937 16.78 15.8609C16.4193 15.7297 15.982 16.096 16.0421 16.4786C16.0804 16.7136 16.1678 16.812 16.698 17.1837C17.0369 17.4188 17.1517 17.539 17.2337 17.7303C17.3266 17.938 17.3376 18.0091 17.2829 18.1785C17.19 18.4956 17.0479 18.5885 16.6543 18.5885C16.4083 18.5885 16.2717 18.5557 16.1241 18.4628L15.9273 18.3425L16.0257 18.0528C16.3919 17.0088 15.7251 15.8719 14.6209 15.6532C14.446 15.615 14.2929 15.5822 14.282 15.5822C14.2766 15.5767 14.2328 15.4346 14.1891 15.2651C13.9923 14.5108 13.3473 13.9478 12.5821 13.8658L12.2869 13.833L12.183 13.5105C11.9097 12.6687 11.2975 12.2096 10.4558 12.2096H10.0349L9.93648 11.9745C9.78343 11.6083 9.44454 11.264 9.04551 11.0672C8.47157 10.7829 7.77191 10.8376 7.22531 11.2038L6.952 11.3897L6.83175 11.0234C6.62404 10.4003 6.52018 10.2746 5.73307 9.71159C5.46523 9.52574 5.25205 9.36176 5.25205 9.34536C5.25205 9.3235 6.22501 7.94058 8.30212 5.01622C8.82687 4.27284 9.1111 3.91208 9.16577 3.93394C9.20403 3.95034 9.4336 4.09792 9.67411 4.26737ZM23.2573 7.38304C23.8258 9.20324 24.2795 10.7009 24.2685 10.7119C24.2576 10.7228 24.028 10.7993 23.7602 10.8868C23.3284 11.018 23.2573 11.0289 23.148 10.9579C23.0824 10.9141 21.6284 9.8865 19.9175 8.67303C16.0913 5.94546 16.0202 5.90173 15.736 5.81974C15.4135 5.73775 14.8888 5.78694 14.6045 5.92906C14.4788 5.99465 14.0142 6.38821 13.5769 6.79817C13.1451 7.20812 12.7078 7.59075 12.6149 7.63994C12.2432 7.83672 11.866 7.70007 11.866 7.36664C11.866 7.22999 12.7679 5.64482 13.003 5.37699C13.1013 5.2622 14.5717 4.32203 14.7685 4.24551C14.856 4.21271 15.7852 4.27284 17.6054 4.42042L20.3111 4.64453L21.1857 4.36576C21.6667 4.21271 22.0985 4.08699 22.1422 4.08152C22.2078 4.07606 22.4702 4.84678 23.2573 7.38304ZM8.61369 12.1659C8.8378 12.3025 8.93619 12.5376 8.89793 12.8273C8.8542 13.1443 7.9359 14.3632 7.6298 14.5108C7.34556 14.6475 7.10505 14.6092 6.89734 14.3906C6.71696 14.2102 6.6459 13.9915 6.70056 13.762C6.74429 13.5597 7.76098 12.2096 7.93043 12.1276C8.13268 12.0237 8.41145 12.0401 8.61369 12.1659ZM10.8548 13.5488C11.057 13.751 11.1281 13.9533 11.0789 14.161C11.0352 14.3359 9.81076 15.9757 9.57572 16.1725C9.37894 16.3365 9.08377 16.3693 8.83233 16.2545C8.63009 16.1616 8.46064 15.8117 8.4989 15.5822C8.54263 15.3581 9.89275 13.5706 10.1059 13.4559C10.1879 13.4067 10.3464 13.3739 10.4667 13.3684C10.6307 13.3684 10.7127 13.4067 10.8548 13.5488ZM12.6531 15.0847C13.0303 15.2433 13.1833 15.7789 12.9538 16.1506C12.8936 16.2545 12.6586 16.5715 12.429 16.8558C11.9425 17.4625 11.6692 17.6319 11.3249 17.5281C10.9204 17.4078 10.658 16.9487 10.8001 16.6152C10.9258 16.3255 11.8113 15.1995 11.9917 15.1011C12.1994 14.9864 12.4072 14.9809 12.6531 15.0847ZM14.6373 16.8995C15.0309 17.1455 15.0418 17.5445 14.6701 18.0856C14.528 18.2933 14.3476 18.512 14.282 18.5666C13.8393 18.9165 13.1779 18.5776 13.1779 18.0036C13.1779 17.8342 13.2435 17.7139 13.5222 17.3477C13.965 16.7683 14.2438 16.6535 14.6373 16.8995Z"/>
</mask>
<path d="M6.42179 0.271666C6.26328 0.342726 6.07196 0.490309 5.98997 0.59963C5.54175 1.18997 1.0869 7.51969 1.01037 7.68367C0.797195 8.12096 0.868254 8.6457 1.19075 9.001C1.36567 9.19231 2.8907 10.2965 3.21867 10.4659C3.44824 10.5862 3.94566 10.5698 4.25176 10.4222L4.53053 10.2965L5.04981 10.6627C5.50896 10.9852 5.58548 11.0617 5.66747 11.2858C5.71667 11.4225 5.84239 11.745 5.94078 12.0019L6.12116 12.4665L5.90798 12.7835C5.60188 13.2372 5.50896 13.5706 5.53629 14.0462C5.57455 14.6201 5.80959 15.0356 6.29607 15.4018C6.52018 15.5712 6.72243 15.6478 7.17065 15.7407C7.28543 15.768 7.3237 15.8117 7.35649 15.9757C7.45488 16.5497 7.8703 17.0799 8.42238 17.3422C8.67382 17.468 8.79954 17.4898 9.19856 17.4953H9.67411L9.83263 17.7413C10.1989 18.3207 10.8275 18.6924 11.4287 18.6978C11.6255 18.6978 11.8605 18.6814 11.9589 18.6596C12.1229 18.6213 12.1338 18.6322 12.194 18.8071C12.2869 19.0914 12.7023 19.5177 13.0576 19.6927C13.32 19.8184 13.4402 19.8457 13.8065 19.8457C14.3093 19.8457 14.6428 19.7418 15.0035 19.4631L15.2386 19.2827L15.5392 19.4685C16.3318 19.955 17.2446 19.9004 17.8896 19.3319C18.1465 19.1078 18.4089 18.5885 18.4526 18.2113L18.4909 17.9216L18.7697 17.8888C19.5677 17.7905 20.1909 17.1291 20.2783 16.2764L20.3111 15.9211L20.5297 15.8555C20.9014 15.7461 21.1802 15.5767 21.4371 15.2979C21.6886 15.0301 21.9236 14.5327 21.9236 14.2703C21.9236 14.161 21.9619 14.1336 22.2078 14.0845C23.066 13.8986 23.6236 13.2919 23.7165 12.4282L23.7547 12.0893L24.1975 11.9581L24.6457 11.827L24.8644 12.0456C25.1705 12.3517 25.5749 12.472 25.9849 12.3845C26.4495 12.2861 28.1112 11.7395 28.2971 11.6247C28.6195 11.4279 28.8655 10.9852 28.8655 10.6026C28.8655 10.3894 26.2199 1.86776 26.0942 1.67645C25.8373 1.28289 25.2907 1.02052 24.8862 1.09704C24.5965 1.14624 22.8474 1.69831 22.6123 1.80763C22.2625 1.97708 21.9236 2.47996 21.9236 2.83526C21.9236 2.90085 21.7323 2.98284 21.2021 3.14683C20.8031 3.27254 20.404 3.3928 20.322 3.42013C20.2182 3.45292 19.3163 3.39826 17.507 3.25068C14.4897 2.99377 14.5444 2.99377 13.9103 3.38187L13.5332 3.61691L12.9866 3.57318C12.6859 3.54585 12.0573 3.54038 11.5927 3.56225L10.7455 3.59504L10.3628 3.32721C9.69051 2.86806 9.72877 2.91178 9.78343 2.72594C9.84356 2.52916 9.76703 2.03174 9.65225 1.85683C9.60852 1.78577 9.51559 1.67645 9.45 1.61632C9.24229 1.41954 7.60793 0.304462 7.41115 0.217005C7.12692 0.102219 6.74429 0.124083 6.42179 0.271666ZM7.79378 1.85136C8.242 2.16293 8.61369 2.4417 8.61916 2.46903C8.64649 2.54556 3.80901 9.35083 3.71608 9.36723C3.61769 9.38362 2.04893 8.26854 2.06533 8.18655C2.08172 8.10456 6.90281 1.28836 6.94107 1.28836C6.96293 1.28836 7.34009 1.5398 7.79378 1.85136ZM26.4113 6.4538C27.1273 8.73863 27.6958 10.6244 27.6739 10.6408C27.6193 10.6955 25.8646 11.2366 25.7608 11.2366C25.6843 11.2366 25.4055 10.3948 24.3724 7.07147C23.6563 4.77572 23.0933 2.88445 23.1152 2.86259C23.1863 2.79153 24.848 2.28318 24.9846 2.28865C25.1103 2.29958 25.165 2.4581 26.4113 6.4538ZM9.67411 4.26737C10.3355 4.73199 10.4066 4.74839 11.2757 4.74292L12.0245 4.73199L11.5271 5.5355C10.7892 6.74897 10.7509 6.83096 10.7291 7.27918C10.7017 7.7766 10.8439 8.12642 11.2101 8.47079C11.5599 8.79875 11.8059 8.89714 12.2814 8.90261C12.6258 8.90807 12.7133 8.88621 13.074 8.7113C13.3965 8.54731 13.648 8.34507 14.3148 7.711C14.9871 7.07147 15.1785 6.91842 15.3042 6.91842C15.4791 6.91842 15.3643 6.8419 19.4639 9.75532C20.9506 10.8157 22.2461 11.7504 22.3445 11.8434C22.5522 12.0347 22.6123 12.2588 22.5249 12.5212C22.3937 12.9256 21.8525 13.0787 21.4808 12.8218C21.377 12.7507 20.8304 12.3626 20.2619 11.9581C19.6989 11.5537 19.1523 11.2038 19.0539 11.182C18.8407 11.1328 18.5838 11.2312 18.4581 11.4061C18.3488 11.5646 18.3433 11.8871 18.4526 12.0401C18.4964 12.1003 18.9938 12.4829 19.5568 12.8819C20.1253 13.2755 20.6281 13.6526 20.6828 13.7128C20.8031 13.8494 20.8031 14.2047 20.6883 14.407C20.5024 14.7131 20.0761 14.8278 19.7317 14.6529C19.6442 14.6037 19.125 14.2484 18.5784 13.8603C17.7694 13.2809 17.5562 13.1498 17.4032 13.1498C17.0643 13.1498 16.7855 13.4012 16.7855 13.7018C16.7855 13.9587 16.9713 14.1391 17.9607 14.8442C19.0156 15.5931 19.1359 15.7243 19.1359 16.0741C19.1359 16.4786 18.8571 16.7574 18.4526 16.7574C18.1793 16.7574 17.9498 16.648 17.4032 16.26C17.1353 16.0741 16.8565 15.8937 16.78 15.8609C16.4193 15.7297 15.982 16.096 16.0421 16.4786C16.0804 16.7136 16.1678 16.812 16.698 17.1837C17.0369 17.4188 17.1517 17.539 17.2337 17.7303C17.3266 17.938 17.3376 18.0091 17.2829 18.1785C17.19 18.4956 17.0479 18.5885 16.6543 18.5885C16.4083 18.5885 16.2717 18.5557 16.1241 18.4628L15.9273 18.3425L16.0257 18.0528C16.3919 17.0088 15.7251 15.8719 14.6209 15.6532C14.446 15.615 14.2929 15.5822 14.282 15.5822C14.2766 15.5767 14.2328 15.4346 14.1891 15.2651C13.9923 14.5108 13.3473 13.9478 12.5821 13.8658L12.2869 13.833L12.183 13.5105C11.9097 12.6687 11.2975 12.2096 10.4558 12.2096H10.0349L9.93648 11.9745C9.78343 11.6083 9.44454 11.264 9.04551 11.0672C8.47157 10.7829 7.77191 10.8376 7.22531 11.2038L6.952 11.3897L6.83175 11.0234C6.62404 10.4003 6.52018 10.2746 5.73307 9.71159C5.46523 9.52574 5.25205 9.36176 5.25205 9.34536C5.25205 9.3235 6.22501 7.94058 8.30212 5.01622C8.82687 4.27284 9.1111 3.91208 9.16577 3.93394C9.20403 3.95034 9.4336 4.09792 9.67411 4.26737ZM23.2573 7.38304C23.8258 9.20324 24.2795 10.7009 24.2685 10.7119C24.2576 10.7228 24.028 10.7993 23.7602 10.8868C23.3284 11.018 23.2573 11.0289 23.148 10.9579C23.0824 10.9141 21.6284 9.8865 19.9175 8.67303C16.0913 5.94546 16.0202 5.90173 15.736 5.81974C15.4135 5.73775 14.8888 5.78694 14.6045 5.92906C14.4788 5.99465 14.0142 6.38821 13.5769 6.79817C13.1451 7.20812 12.7078 7.59075 12.6149 7.63994C12.2432 7.83672 11.866 7.70007 11.866 7.36664C11.866 7.22999 12.7679 5.64482 13.003 5.37699C13.1013 5.2622 14.5717 4.32203 14.7685 4.24551C14.856 4.21271 15.7852 4.27284 17.6054 4.42042L20.3111 4.64453L21.1857 4.36576C21.6667 4.21271 22.0985 4.08699 22.1422 4.08152C22.2078 4.07606 22.4702 4.84678 23.2573 7.38304ZM8.61369 12.1659C8.8378 12.3025 8.93619 12.5376 8.89793 12.8273C8.8542 13.1443 7.9359 14.3632 7.6298 14.5108C7.34556 14.6475 7.10505 14.6092 6.89734 14.3906C6.71696 14.2102 6.6459 13.9915 6.70056 13.762C6.74429 13.5597 7.76098 12.2096 7.93043 12.1276C8.13268 12.0237 8.41145 12.0401 8.61369 12.1659ZM10.8548 13.5488C11.057 13.751 11.1281 13.9533 11.0789 14.161C11.0352 14.3359 9.81076 15.9757 9.57572 16.1725C9.37894 16.3365 9.08377 16.3693 8.83233 16.2545C8.63009 16.1616 8.46064 15.8117 8.4989 15.5822C8.54263 15.3581 9.89275 13.5706 10.1059 13.4559C10.1879 13.4067 10.3464 13.3739 10.4667 13.3684C10.6307 13.3684 10.7127 13.4067 10.8548 13.5488ZM12.6531 15.0847C13.0303 15.2433 13.1833 15.7789 12.9538 16.1506C12.8936 16.2545 12.6586 16.5715 12.429 16.8558C11.9425 17.4625 11.6692 17.6319 11.3249 17.5281C10.9204 17.4078 10.658 16.9487 10.8001 16.6152C10.9258 16.3255 11.8113 15.1995 11.9917 15.1011C12.1994 14.9864 12.4072 14.9809 12.6531 15.0847ZM14.6373 16.8995C15.0309 17.1455 15.0418 17.5445 14.6701 18.0856C14.528 18.2933 14.3476 18.512 14.282 18.5666C13.8393 18.9165 13.1779 18.5776 13.1779 18.0036C13.1779 17.8342 13.2435 17.7139 13.5222 17.3477C13.965 16.7683 14.2438 16.6535 14.6373 16.8995Z" stroke="#B5985A" stroke-width="2" mask="url(#path-1-inside-1_2982_17158)"/>
<path d="M3.41631 6.91278C3.02822 7.14782 2.97902 7.66163 3.30699 7.9896C3.75521 8.43782 4.48766 8.13718 4.48766 7.50312C4.48766 6.95104 3.89186 6.62308 3.41631 6.91278Z" fill="#B5985A"/>
</g>
<defs>
<clipPath id="clip0_2982_17158">
<rect width="28" height="19.7189" fill="white" transform="translate(0.878906 0.140625)"/>
</clipPath>
</defs>
</svg>
