<svg width="28" height="29" viewBox="0 0 28 29" fill="none" xmlns="http://www.w3.org/2000/svg">
<g clip-path="url(#clip0_2982_17175)">
<path d="M21.4935 17.771C21.0831 17.287 20.6043 16.8675 20.0692 16.5206H27.1547V17.771H21.4935ZM27.1547 20.7154V21.9658H23.0426C23.0426 21.5463 22.9983 21.1228 22.9178 20.7154H27.1547ZM22.7086 24.0591C22.8414 23.6598 22.942 23.2403 22.9943 22.8087H26.3499V24.0591H22.7126H22.7086ZM27.1547 26.1565H21.5378C21.8556 25.7733 22.1292 25.3579 22.3545 24.9061H27.1506V26.1565H27.1547ZM22.1051 18.618H25.9234V19.8684H22.6885C22.5396 19.4287 22.3425 19.0093 22.1051 18.618ZM16.5526 27.6529C14.9954 27.6529 13.5832 27.0196 12.5612 25.9951C10.3563 23.7848 10.3563 20.1991 12.5612 17.9888C14.7701 15.7745 18.3471 15.7825 20.548 17.9888C21.6102 19.0536 22.2016 20.4855 22.2016 21.99C22.2016 25.1078 19.6829 27.6488 16.5526 27.6488M10.6178 17.3233H8.90376V15.1775H10.6178V17.3233ZM13.1768 11.7814V16.4319C12.7624 16.686 12.3761 16.9845 12.0301 17.3233H11.4627V11.7814H13.1768ZM15.7358 13.6287V15.5325C15.1363 15.6091 14.5609 15.7664 14.0217 15.9963V13.6287H15.7358ZM18.2948 10.0793V15.718C17.7476 15.5688 17.1762 15.4841 16.5807 15.48V10.0752H18.2948V10.0793ZM10.1028 21.2559C5.99874 19.2311 4.44967 14.145 6.73908 10.164C8.9279 6.36853 13.7723 5.06573 17.5544 7.25991C19.3087 8.27633 20.6767 9.9623 21.244 12.0798C21.5579 13.2939 21.6062 14.4555 21.3647 15.6736H19.4857C19.3369 15.6736 19.2121 15.7462 19.1357 15.8592V9.65173C19.1357 9.41779 18.9466 9.22822 18.7132 9.22822H16.1542C15.9209 9.22822 15.7318 9.41779 15.7318 9.65173V12.7776H14.0177V11.3538C14.0177 11.1199 13.8286 10.9303 13.5952 10.9303H11.0362C10.8029 10.9303 10.6138 11.1199 10.6138 11.3538V14.3265H8.47726C8.24389 14.3265 8.05479 14.516 8.05479 14.75V17.7428C8.05479 17.9767 8.24389 18.1663 8.47726 18.1663H11.2938C10.65 19.0536 10.2275 20.1064 10.0988 21.2518M9.27393 24.9666L8.87157 25.6604C8.69856 25.9629 8.30827 26.0637 8.01053 25.8903L6.29246 24.8981C5.9907 24.7246 5.89011 24.3334 6.06312 24.0349L6.43731 23.3896C6.79139 22.8128 6.69884 22.0666 6.21602 21.5826C5.57627 20.9413 5.00895 20.2032 4.55428 19.4126C4.2163 18.8278 3.54839 18.5454 2.89657 18.7229L2.15221 18.9246C1.81423 19.0173 1.46821 18.8116 1.37969 18.4769L0.868695 16.5569C0.780177 16.2222 0.977331 15.8753 1.31531 15.7825L2.05967 15.5809C2.70746 15.4074 3.15006 14.8306 3.15006 14.153C3.15006 13.2334 3.27076 12.3299 3.50816 11.4426C3.68117 10.8053 3.41159 10.1317 2.84829 9.79693L2.15221 9.39359C1.85045 9.21612 1.74986 8.82891 1.91885 8.53044L2.90864 6.80817C3.08166 6.5097 3.47999 6.40886 3.75359 6.56616L4.4376 6.96144C5.01297 7.30428 5.74526 7.20344 6.22004 6.7275C6.85979 6.08215 7.5961 5.51748 8.38069 5.0617C8.96411 4.72289 9.24576 4.05334 9.06872 3.39993L8.86755 2.65375C8.77903 2.31494 8.98021 1.96807 9.31416 1.87933L11.2294 1.36709C11.5633 1.27432 11.9094 1.47599 12.0019 1.81076L12.2031 2.55694C12.3761 3.21036 12.9515 3.65 13.6274 3.65C14.5448 3.65 15.4461 3.771 16.3313 4.00898C16.9831 4.18241 17.655 3.90411 17.989 3.31926L18.3752 2.64971C18.5482 2.35124 18.9466 2.24637 19.2202 2.40771L20.9543 3.41203C21.2521 3.58547 21.3567 3.97671 21.1837 4.27518L20.8095 4.92456C20.4554 5.50134 20.548 6.24752 21.0308 6.73153C21.6705 7.37285 22.2379 8.11096 22.6925 8.90151C23.0305 9.48636 23.6984 9.7687 24.3502 9.59123L25.0946 9.38956C25.4326 9.29679 25.7786 9.50249 25.8671 9.83323L26.3781 11.7531C26.4666 12.0919 26.2695 12.4388 25.9315 12.5276L25.1871 12.7252C24.5353 12.8986 24.0967 13.4754 24.0967 14.153C24.0967 14.6612 24.0605 15.1614 23.9881 15.6656H22.2218C22.8696 12.0355 21.1756 8.37314 17.9769 6.51776C13.7843 4.08964 8.42898 5.52957 6.00679 9.7324C4.11974 13.0075 4.53819 17.1216 7.02878 19.941C7.8697 20.8929 8.90778 21.6512 10.0585 22.1594C10.0786 22.8894 10.2195 23.5912 10.4609 24.2446C9.95793 24.2648 9.54351 24.5229 9.2699 24.9586M27.5771 18.618C27.8105 18.618 27.9996 18.4285 27.9996 18.1945V16.0971C27.9996 15.8632 27.8105 15.6736 27.5771 15.6736H24.8411C24.9055 15.1735 24.9417 14.6693 24.9417 14.1611C24.9417 13.8707 25.1268 13.6247 25.4084 13.552L26.1528 13.3504C26.9374 13.1406 27.4081 12.3259 27.1949 11.5394L26.6879 9.64366L26.6718 9.59526C26.4264 8.81681 25.6901 8.3933 24.9015 8.57077L24.133 8.77648C23.8513 8.85311 23.5697 8.73614 23.4208 8.48204C22.9219 7.61485 22.3264 6.8364 21.6263 6.13459C21.4211 5.92888 21.3808 5.62638 21.5257 5.37227L21.9079 4.70676C22.3143 3.99688 22.0729 3.08936 21.3728 2.68601L19.6547 1.68976C18.9546 1.28238 18.0493 1.52036 17.6429 2.23024L17.2567 2.89979C17.1118 3.15389 16.8302 3.27086 16.5485 3.19423C15.603 2.93609 14.6132 2.80702 13.6234 2.80702C13.3337 2.80702 13.0883 2.62148 13.0118 2.33914L12.8187 1.61716C12.6296 0.822574 11.7685 0.32243 10.9839 0.556369L9.09287 1.06458C8.30827 1.27432 7.84154 2.08907 8.05076 2.87558L8.24792 3.62177C8.32436 3.90411 8.20768 4.19048 7.9542 4.33568C7.08913 4.83583 6.31258 5.43277 5.61248 6.13459C5.40728 6.34029 5.10149 6.38063 4.85203 6.23542L4.18411 5.84822C3.48401 5.44084 2.57871 5.67881 2.17233 6.38869L1.18253 8.10693C0.776153 8.81278 1.01354 9.71626 1.72169 10.1236L2.3896 10.5108C2.64309 10.6601 2.75977 10.9384 2.68332 11.2248C2.42984 12.1726 2.30108 13.1608 2.30108 14.1571C2.30108 14.4475 2.116 14.6935 1.83033 14.7661L1.08597 14.9637C0.305396 15.1735 -0.165362 15.9882 0.0438639 16.7747L0.554857 18.6947C0.764082 19.4812 1.57684 19.9491 2.36144 19.7393L3.1058 19.5417C3.38745 19.465 3.6691 19.582 3.81395 19.8361C4.31287 20.7033 4.91238 21.4818 5.60846 22.1836C5.81366 22.3893 5.85389 22.6918 5.70905 22.9459L5.3429 23.5832C4.89629 24.2809 5.16184 25.2772 5.89815 25.6563L7.58 26.6284C8.28413 27.0358 9.18541 26.7978 9.59179 26.0919L9.97805 25.4224C10.0505 25.2933 10.1511 25.2006 10.2798 25.1481C10.5051 25.0554 10.6621 25.1199 10.8793 25.1764C12.8589 28.7096 17.5585 29.6051 20.6848 27.0075H27.5691C27.8025 27.0075 27.9916 26.818 27.9916 26.584V24.4866C27.9916 24.2527 27.8025 24.0631 27.5691 24.0631H27.1828V22.8128H27.5691C27.8025 22.8128 27.9916 22.6232 27.9916 22.3893V20.2919C27.9916 20.058 27.8025 19.8684 27.5691 19.8684H26.7603V18.618H27.5691H27.5771Z" fill="#B5985A"/>
</g>
<defs>
<clipPath id="clip0_2982_17175">
<rect width="28" height="28" fill="white" transform="translate(0 0.5)"/>
</clipPath>
</defs>
</svg>
