<svg width="23" height="28" viewBox="0 0 23 28" fill="none" xmlns="http://www.w3.org/2000/svg">
<g clip-path="url(#clip0_2982_17159)">
<path d="M15.3082 21.0583V19.6801L17.3352 18.1875C17.6532 17.95 18.0348 17.8313 18.408 17.8313C18.7812 17.8313 19.1628 17.95 19.4808 18.1875L21.5078 19.6801V21.0583C21.5078 22.8096 20.6173 24.3998 19.1289 25.32L18.4038 25.7653L17.6786 25.32C16.1902 24.3998 15.2997 22.8054 15.2997 21.0583M17.6447 17.0722C17.3564 17.1613 17.0765 17.2927 16.8136 17.4793L16.5888 17.6447V5.39815C16.5888 5.15644 16.3895 4.96138 16.1521 4.96138H14.0276V4.6179C14.0276 4.38891 13.9852 4.17265 13.9173 3.96062H16.962C17.3352 3.96062 17.6405 4.26594 17.6405 4.6391V17.0722H17.6447ZM14.0276 5.85189V5.83916H15.7068V18.2977L14.6043 19.1077C14.4898 19.1925 14.4262 19.3239 14.4262 19.4639V19.502C14.3795 19.307 14.2141 19.1628 14.0106 19.1628H7.85764C7.61593 19.1628 7.41663 19.3621 7.41663 19.5996C7.41663 19.837 7.61593 20.0363 7.85764 20.0363H14.0106C14.2184 20.0363 14.3838 19.8922 14.4262 19.6971V21.0583C14.4262 22.4195 14.8926 23.6959 15.7068 24.7179V25.0401H2.80721V5.83916H4.48645V5.85189C4.48645 6.09783 4.68575 6.28866 4.92322 6.28866H13.5866C13.8283 6.28866 14.0233 6.08935 14.0233 5.85189M7.6541 2.86658V2.48493C7.6541 1.59867 8.37498 0.877783 9.26124 0.877783C10.1475 0.877783 10.8684 1.59867 10.8684 2.48493V2.87082C10.8684 3.11252 11.0677 3.31183 11.3094 3.31183H11.8479C12.5731 3.31183 13.1583 3.90126 13.1583 4.62214V5.41935H5.36423V4.6179C5.36423 3.89278 5.95366 3.30759 6.67454 3.30759H7.21309C7.45479 3.30759 7.6541 3.11252 7.6541 2.87082M0.877783 26.448V4.64334C0.877783 4.27018 1.1831 3.96486 1.55626 3.96486H4.60094C4.53309 4.17689 4.49069 4.38891 4.49069 4.62214V4.96562H2.37044C2.12873 4.96562 1.93367 5.16493 1.93367 5.40239V25.4811C1.93367 25.7229 2.12873 25.9179 2.37044 25.9179H16.1478C16.3514 25.9179 16.5125 25.778 16.5634 25.5914C16.7712 25.761 16.9874 25.9222 17.2207 26.0663L17.6405 26.325V26.448C17.6405 26.8211 17.3352 27.1265 16.962 27.1265H1.55626C1.1831 27.1265 0.877783 26.8169 0.877783 26.448ZM22.216 19.0992L20.0109 17.4751C19.5614 17.1443 19.0441 16.979 18.5267 16.9577V4.63062C18.5267 3.7698 17.827 3.07436 16.9705 3.07436H13.4085C13.0098 2.67151 12.4628 2.42132 11.8522 2.42132H11.7504C11.7123 1.08557 10.6097 0 9.26124 0C7.91277 0 6.81024 1.08557 6.78055 2.42556H6.67878C6.06815 2.42556 5.51689 2.67575 5.12252 3.0786H1.55626C0.695441 3.0786 0 3.77828 0 4.63486V26.4437C0 27.3046 0.695441 28 1.55626 28H16.962C17.7295 28 18.3656 27.4403 18.4928 26.7066C18.5437 26.6982 18.5946 26.6812 18.6412 26.6558L19.5953 26.0621C21.3467 24.9808 22.3898 23.1107 22.3898 21.0541V19.4554C22.3898 19.3155 22.3262 19.184 22.2117 19.0992" fill="#B5985A"/>
<path d="M5.76333 8.19678H4.46997C4.22827 8.19678 4.0332 8.39608 4.0332 8.63355C4.0332 8.87102 4.22827 9.07032 4.46997 9.07032H5.76333C6.00503 9.07032 6.2001 8.87102 6.2001 8.63355C6.2001 8.39608 6.00503 8.19678 5.76333 8.19678Z" fill="#B5985A"/>
<path d="M5.76333 10.936H4.46997C4.22827 10.936 4.0332 11.1353 4.0332 11.3728C4.0332 11.6103 4.22827 11.8096 4.46997 11.8096H5.76333C6.00503 11.8096 6.2001 11.6103 6.2001 11.3728C6.2001 11.1353 6.00503 10.936 5.76333 10.936Z" fill="#B5985A"/>
<path d="M5.76333 13.6797H4.46997C4.22827 13.6797 4.0332 13.879 4.0332 14.1165C4.0332 14.3539 4.22827 14.5532 4.46997 14.5532H5.76333C6.00503 14.5532 6.2001 14.3539 6.2001 14.1165C6.2001 13.879 6.00503 13.6797 5.76333 13.6797Z" fill="#B5985A"/>
<path d="M7.41602 8.63355C7.41602 8.87526 7.61532 9.07032 7.85279 9.07032H14.01C14.2517 9.07032 14.4468 8.87102 14.4468 8.63355C14.4468 8.39608 14.2517 8.19678 14.01 8.19678H7.85279C7.61108 8.19678 7.41602 8.39608 7.41602 8.63355Z" fill="#B5985A"/>
<path d="M14.01 10.936H7.85703C7.61532 10.936 7.41602 11.1353 7.41602 11.3728C7.41602 11.6103 7.61532 11.8096 7.85703 11.8096H14.01C14.2517 11.8096 14.4468 11.6103 14.4468 11.3728C14.4468 11.1353 14.2517 10.936 14.01 10.936Z" fill="#B5985A"/>
<path d="M14.01 13.6797H7.85703C7.61532 13.6797 7.41602 13.879 7.41602 14.1165C7.41602 14.3539 7.61532 14.5532 7.85703 14.5532H14.01C14.2517 14.5532 14.4468 14.3539 14.4468 14.1165C14.4468 13.879 14.2517 13.6797 14.01 13.6797Z" fill="#B5985A"/>
<path d="M5.76333 16.4194H4.46997C4.22827 16.4194 4.0332 16.6187 4.0332 16.8562C4.0332 17.0937 4.22827 17.293 4.46997 17.293H5.76333C6.00503 17.293 6.2001 17.0937 6.2001 16.8562C6.2001 16.6187 6.00503 16.4194 5.76333 16.4194Z" fill="#B5985A"/>
<path d="M5.76333 19.1626H4.46997C4.22827 19.1626 4.0332 19.3619 4.0332 19.5994C4.0332 19.8368 4.22827 20.0404 4.46997 20.0404H5.76333C6.00503 20.0404 6.2001 19.8411 6.2001 19.5994C6.2001 19.3577 6.00503 19.1626 5.76333 19.1626Z" fill="#B5985A"/>
<path d="M5.76333 21.9023H4.46997C4.22827 21.9023 4.0332 22.1016 4.0332 22.3391C4.0332 22.5766 4.22827 22.7759 4.46997 22.7759H5.76333C6.00503 22.7759 6.2001 22.5766 6.2001 22.3391C6.2001 22.1016 6.00503 21.9023 5.76333 21.9023Z" fill="#B5985A"/>
<path d="M14.01 16.4194H7.85703C7.61532 16.4194 7.41602 16.6187 7.41602 16.8562C7.41602 17.0937 7.61532 17.293 7.85703 17.293H14.01C14.2517 17.293 14.4468 17.0937 14.4468 16.8562C14.4468 16.6187 14.2517 16.4194 14.01 16.4194Z" fill="#B5985A"/>
<path d="M7.85669 22.7798H14.0097C14.2514 22.7798 14.4507 22.5805 14.4507 22.343C14.4507 22.1056 14.2556 21.9062 14.0097 21.9062H7.85669C7.61499 21.9062 7.41992 22.1056 7.41992 22.343C7.41992 22.5805 7.61499 22.7798 7.85669 22.7798Z" fill="#B5985A"/>
</g>
<defs>
<clipPath id="clip0_2982_17159">
<rect width="22.3941" height="28" fill="white"/>
</clipPath>
</defs>
</svg>
