<svg width="28" height="28" viewBox="0 0 28 28" fill="none" xmlns="http://www.w3.org/2000/svg">
<g clip-path="url(#clip0_2982_17155)">
<path d="M10.1205 0.956781C6.07364 1.47084 2.71036 4.22162 1.43067 8.06616C0.714266 10.2263 0.708797 12.5177 1.4252 14.656C3.25723 20.174 9.18536 23.1544 14.6869 21.3224C15.89 20.9232 17.126 20.2396 18.0338 19.474C18.2525 19.288 18.4494 19.1404 18.4768 19.1404C18.4986 19.1404 18.8596 19.4849 19.2807 19.906L20.0408 20.6662L19.9205 20.9123C19.7291 21.3115 19.658 21.8091 19.74 22.2357C19.8658 22.9193 19.9424 23.0177 21.8729 24.9482C23.8088 26.8896 23.8854 26.9497 24.6072 27.081C25.0393 27.163 25.5588 27.0701 25.9963 26.8404C26.7893 26.4138 27.2432 25.4622 27.0791 24.5763C26.9588 23.8982 26.8713 23.7888 25.001 21.913C23.415 20.3162 23.24 20.1576 22.8682 19.9716C22.4744 19.7747 22.4361 19.7693 21.8838 19.7693C21.3697 19.7693 21.2658 19.7857 20.9979 19.9115L20.6861 20.0591L19.915 19.2826C19.494 18.856 19.144 18.4841 19.144 18.4513C19.144 18.4185 19.1986 18.3474 19.2588 18.2872C19.833 17.7787 21.0525 15.7388 20.976 15.4216C20.9213 15.1974 20.7846 15.0935 20.5658 15.0935C20.3252 15.0935 20.2596 15.1591 20.019 15.6404C19.1877 17.2974 17.7549 18.8177 16.1525 19.731C13.019 21.5247 9.05958 21.3935 6.07911 19.4083C4.5588 18.3912 3.26817 16.8654 2.57911 15.274C0.681453 10.8935 2.14161 5.96069 6.12833 3.31381C8.51817 1.72241 11.6846 1.31772 14.4572 2.24194C15.6604 2.64663 16.94 3.40678 17.8424 4.25991C18.433 4.81772 18.5424 4.88881 18.7666 4.83959C19.0619 4.77397 19.1822 4.42397 19.0018 4.16694C18.8322 3.92631 17.7986 3.04584 17.2354 2.6685C15.5291 1.52553 13.719 0.956781 11.6244 0.902094C11.0502 0.885687 10.5307 0.907562 10.1205 0.956781ZM22.3213 20.6497C22.6002 20.7318 22.7096 20.8302 24.3174 22.438C25.258 23.3787 26.0674 24.2318 26.1221 24.3357C26.2588 24.5927 26.2643 25.2763 26.1275 25.5224C25.7885 26.1568 25.0119 26.4083 24.3502 26.1021C24.115 25.9927 21.0197 22.9521 20.7846 22.5912C20.4018 22.0169 20.544 21.2294 21.1072 20.8247C21.4736 20.5622 21.84 20.5076 22.3213 20.6497Z" fill="#B5985A"/>
<path d="M25.4887 0.923829C25.1004 1.04961 24.816 1.28477 24.6355 1.64023C24.5371 1.83711 24.4988 2.31836 24.5699 2.56992C24.6027 2.6957 24.477 2.81055 22.9402 4.06836L21.2723 5.42461L20.966 5.33164C20.2004 5.09102 19.4293 5.56133 19.2816 6.3543L19.2434 6.55664L17.7996 7.03789L16.3613 7.51367L16.2082 7.37148C15.7543 6.95039 15.098 6.8957 14.6004 7.23477L14.4145 7.36602L12.9051 6.61133L11.3957 5.85664L11.3629 5.5832C11.2809 4.87227 10.7668 4.40742 10.0668 4.40742C9.31758 4.40742 8.79258 4.93242 8.78711 5.68164L8.78164 6.03164L7.20117 7.08711L5.6207 8.14258L5.39648 8.02227C5.09023 7.86367 4.54883 7.8582 4.24258 8.02227C3.77227 8.26836 3.53711 8.66211 3.53711 9.18711C3.53711 9.93633 4.06211 10.4668 4.8168 10.4668C5.56055 10.4668 6.08555 9.94727 6.10742 9.19805L6.11289 8.85352L7.69883 7.79805L9.2793 6.74258L9.48164 6.84102C9.89727 7.05977 10.4004 7.02695 10.7832 6.76445L10.9691 6.6332L12.4785 7.38789L13.9879 8.14258L14.0207 8.41602C14.1027 9.12695 14.6223 9.5918 15.3168 9.5918C15.973 9.5918 16.4816 9.1707 16.602 8.51992L16.6402 8.32305L18.084 7.84727L19.5332 7.36602L19.6809 7.5082C19.9434 7.7543 20.184 7.8418 20.5668 7.8418C20.9496 7.8418 21.1902 7.7543 21.4582 7.49727C21.7426 7.24023 21.8465 6.96133 21.852 6.49648V6.06992L23.0277 5.10742C23.673 4.57695 24.4277 3.96445 24.6957 3.74023L25.1934 3.34102L25.434 3.42305C25.8715 3.57617 26.4293 3.42852 26.752 3.07852C27.009 2.81055 27.0965 2.56992 27.0965 2.18711C27.0965 1.66758 26.8559 1.26289 26.3965 1.02773C26.1613 0.907422 25.6965 0.852735 25.4887 0.923829ZM26.1176 1.88633C26.2051 1.96836 26.2543 2.0832 26.2543 2.18711C26.2543 2.29102 26.2051 2.40586 26.1176 2.48789C26.0355 2.57539 25.9207 2.62461 25.8168 2.62461C25.7129 2.62461 25.598 2.57539 25.516 2.48789C25.4285 2.40586 25.3793 2.29102 25.3793 2.18711C25.3793 2.0832 25.4285 1.96836 25.516 1.88633C25.598 1.79883 25.7129 1.74961 25.8168 1.74961C25.9207 1.74961 26.0355 1.79883 26.1176 1.88633ZM10.3676 5.38633C10.641 5.6543 10.4496 6.12461 10.0668 6.12461C9.84258 6.12461 9.6293 5.91133 9.6293 5.68711C9.6293 5.46289 9.84258 5.24961 10.0668 5.24961C10.1707 5.24961 10.2855 5.29883 10.3676 5.38633ZM20.8676 6.26133C20.9551 6.34336 21.0043 6.4582 21.0043 6.56211C21.0043 6.66602 20.9551 6.78086 20.8676 6.86289C20.7855 6.95039 20.6707 6.99961 20.5668 6.99961C20.4629 6.99961 20.348 6.95039 20.266 6.86289C20.1785 6.78086 20.1293 6.66602 20.1293 6.56211C20.1293 6.4582 20.1785 6.34336 20.266 6.26133C20.348 6.17383 20.4629 6.12461 20.5668 6.12461C20.6707 6.12461 20.7855 6.17383 20.8676 6.26133ZM15.6176 8.01133C15.7051 8.09336 15.7543 8.2082 15.7543 8.31211C15.7543 8.41602 15.7051 8.53086 15.6176 8.61289C15.5355 8.70039 15.4207 8.74961 15.3168 8.74961C15.2129 8.74961 15.098 8.70039 15.016 8.61289C14.9285 8.53086 14.8793 8.41602 14.8793 8.31211C14.8793 8.2082 14.9285 8.09336 15.016 8.01133C15.098 7.92383 15.2129 7.87461 15.3168 7.87461C15.4207 7.87461 15.5355 7.92383 15.6176 8.01133ZM5.11758 8.88633C5.39102 9.1543 5.19961 9.62461 4.8168 9.62461C4.59258 9.62461 4.3793 9.41133 4.3793 9.18711C4.3793 8.96289 4.59258 8.74961 4.8168 8.74961C4.9207 8.74961 5.03555 8.79883 5.11758 8.88633Z" fill="#B5985A"/>
<path d="M25.6191 4.4404C25.5535 4.46775 25.4715 4.55525 25.4387 4.62634C25.3512 4.81775 25.3512 11.8068 25.4387 11.9982C25.477 12.0693 25.5754 12.1623 25.6574 12.2006C25.8598 12.2826 26.1059 12.1896 26.1934 11.9982C26.2809 11.8068 26.2809 4.81775 26.1934 4.63181C26.1332 4.50056 25.9309 4.36931 25.7996 4.38025C25.7613 4.38025 25.6793 4.40759 25.6191 4.4404Z" fill="#B5985A"/>
<path d="M9.86895 7.9404C9.80332 7.96775 9.72129 8.05525 9.68848 8.12634C9.60645 8.31775 9.60645 11.8123 9.68848 11.9982C9.72676 12.0693 9.8252 12.1623 9.90723 12.2006C10.1096 12.2826 10.3557 12.1896 10.4432 11.9982C10.5252 11.8123 10.5252 8.31775 10.4432 8.13181C10.383 8.00056 10.1807 7.86931 10.0494 7.88025C10.0111 7.88025 9.9291 7.90759 9.86895 7.9404Z" fill="#B5985A"/>
<path d="M20.3689 8.81523C20.3033 8.84258 20.2213 8.93008 20.1885 9.00117C20.1064 9.18711 20.1064 11.8121 20.1885 11.998C20.3307 12.2988 20.801 12.2988 20.9432 11.998C21.0252 11.8121 21.0252 9.18711 20.9432 9.00664C20.883 8.87539 20.6807 8.74414 20.5494 8.75508C20.5111 8.75508 20.4291 8.78242 20.3689 8.81523Z" fill="#B5985A"/>
<path d="M15.1195 10.5654C14.9336 10.6529 14.8789 10.8443 14.8789 11.3748C14.8789 11.9326 14.9391 12.1076 15.1578 12.2006C15.3602 12.2826 15.6062 12.1896 15.6937 11.9982C15.7703 11.8232 15.7703 10.9263 15.6937 10.7568C15.6336 10.6256 15.4312 10.4943 15.3 10.5052C15.2617 10.5052 15.1797 10.5326 15.1195 10.5654Z" fill="#B5985A"/>
<path d="M4.61297 11.4403C4.31219 11.5879 4.33954 12.0637 4.65672 12.195C5.14344 12.3973 5.4825 11.6536 5.00125 11.4348C4.83719 11.3637 4.77157 11.3637 4.61297 11.4403Z" fill="#B5985A"/>
<path d="M4.61428 13.1905C4.54866 13.2233 4.46663 13.3163 4.42835 13.4038C4.34632 13.6062 4.43928 13.8522 4.63069 13.9397C4.82757 14.0272 26.6807 14.0272 26.8776 13.9397C27.1783 13.7976 27.1783 13.3272 26.8776 13.1851C26.6916 13.103 4.78928 13.103 4.61428 13.1905Z" fill="#B5985A"/>
<path d="M17.7602 15.2136C17.6891 15.312 17.5087 15.5691 17.3501 15.7769C16.9673 16.3074 16.0923 17.1386 15.529 17.5159C14.3751 18.2816 12.8876 18.7574 11.6352 18.7574C11.2962 18.7574 11.247 18.7738 11.0993 18.9159C10.9024 19.1183 10.8915 19.3152 11.0829 19.5066C11.2251 19.6488 11.2306 19.6488 11.8431 19.6159C14.4516 19.4738 16.836 18.1284 18.2743 15.9792C18.5696 15.5363 18.597 15.3941 18.4274 15.1808C18.3399 15.0714 18.2688 15.0386 18.1048 15.0386C17.9298 15.0386 17.8696 15.0714 17.7602 15.2136Z" fill="#B5985A"/>
</g>
<defs>
<clipPath id="clip0_2982_17155">
<rect width="28" height="28" fill="white"/>
</clipPath>
</defs>
</svg>
