<svg width="44" height="40" viewBox="0 0 44 40" fill="none" xmlns="http://www.w3.org/2000/svg">
<path d="M32.1913 18.0466C38.3628 18.0466 43.3659 22.7745 43.3659 28.6066C43.3659 34.4387 38.3628 39.1666 32.1913 39.1666C26.0197 39.1666 21.0167 34.4387 21.0167 28.6066C21.0167 22.7745 26.0197 18.0466 32.1913 18.0466ZM32.1913 21.8851L32.0087 21.9006C31.594 21.9717 31.267 22.2807 31.1918 22.6726L31.1754 22.8451L31.1747 27.6451L26.0913 27.6466L25.9087 27.6621C25.494 27.7332 25.167 28.0422 25.0918 28.434L25.0754 28.6066L25.0918 28.7792C25.167 29.171 25.494 29.48 25.9087 29.5511L26.0913 29.5666L31.1767 29.5651L31.1777 34.3733L31.194 34.5459C31.2693 34.9377 31.5963 35.2467 32.0109 35.3178L32.1935 35.3333L32.3761 35.3178C32.7908 35.2467 33.1178 34.9377 33.193 34.5459L33.2094 34.3733L33.2085 29.5651L38.2958 29.5666L38.4784 29.5511C38.8931 29.48 39.22 29.171 39.2953 28.7792L39.3117 28.6066L39.2953 28.434C39.22 28.0422 38.8931 27.7332 38.4784 27.6621L38.2958 27.6466L33.2064 27.6451L33.2072 22.8451L33.1908 22.6726C33.1155 22.2807 32.7886 21.9717 32.3739 21.9006L32.1913 21.8851ZM25.5963 14.2066C27.2919 14.2066 28.7718 15.079 29.561 16.3746C23.5265 17.5275 18.9849 22.5659 18.9849 28.6066C18.9849 31.0818 19.7474 33.3887 21.0626 35.3289L21.0227 35.3266C15.9721 35.3266 11.8777 31.4574 11.8777 26.6846V18.5266C11.8777 16.1407 13.9244 14.2066 16.4492 14.2066H25.5963ZM11.6838 14.2071C10.6404 15.2348 9.96563 16.5993 9.86041 18.1109L9.84599 18.5266V26.6846C9.84599 28.3101 10.2346 29.8499 10.9288 31.2255C10.2602 31.3965 9.55558 31.4866 8.82872 31.4866C4.33892 31.4866 0.699219 28.0471 0.699219 23.8042V18.5266C0.699219 16.2401 2.57891 14.3686 4.95766 14.2166L5.27065 14.2066L11.6838 14.2071ZM36.7627 14.2066C39.2874 14.2066 41.3341 16.1407 41.3341 18.5266L41.3358 19.6025C38.9628 17.4497 35.7405 16.1266 32.1913 16.1266L31.6972 16.1352C31.3812 15.4155 30.9252 14.7622 30.3617 14.2071L36.7627 14.2066ZM34.223 2.6866C37.0283 2.6866 39.3024 4.83563 39.3024 7.4866C39.3024 10.1376 37.0283 12.2866 34.223 12.2866C31.4178 12.2866 29.1437 10.1376 29.1437 7.4866C29.1437 4.83563 31.4178 2.6866 34.223 2.6866ZM21.0167 0.766602C24.383 0.766602 27.1119 3.34544 27.1119 6.5266C27.1119 9.70776 24.383 12.2866 21.0167 12.2866C17.6504 12.2866 14.9214 9.70776 14.9214 6.5266C14.9214 3.34544 17.6504 0.766602 21.0167 0.766602ZM7.81033 2.6866C10.6156 2.6866 12.8897 4.83563 12.8897 7.4866C12.8897 10.1376 10.6156 12.2866 7.81033 12.2866C5.00507 12.2866 2.73096 10.1376 2.73096 7.4866C2.73096 4.83563 5.00507 2.6866 7.81033 2.6866Z" fill="black"/>
</svg>
